<?xml version="1.0" encoding="UTF-8" standalone="no"?>
<svg xmlns:xlink="http://www.w3.org/1999/xlink" xmlns="http://www.w3.org/2000/svg" xmlns:svg="http://www.w3.org/2000/svg" xmlns:rdf="http://www.w3.org/1999/02/22-rdf-syntax-ns#" xmlns:cc="http://creativecommons.org/ns#" xmlns:dc="http://purl.org/dc/elements/1.1/" id="svg2864" version="1.1" width="986.23682" height="420.19293">
  <metadata id="metadata2870">
    
  </metadata>
  <defs id="defs2868">
    <linearGradient id="linearGradient4061">
      <stop style="stop-color:#000000;stop-opacity:1;" offset="0" id="stop4063"/>
      <stop style="stop-color:#00005c;stop-opacity:1;" offset="1" id="stop4065"/>
    </linearGradient>
    <linearGradient id="linearGradient3674">
      <stop style="stop-color:#ffe100;stop-opacity:1;" offset="0" id="stop3676"/>
      <stop style="stop-color:#dc2314;stop-opacity:1;" offset="1" id="stop3678"/>
    </linearGradient>
    <linearGradient xlink:href="#linearGradient4061" id="linearGradient4075" x1="530.02441" y1="184.59485" x2="530" y2="487.63962" gradientUnits="userSpaceOnUse" gradientTransform="translate(-69.78125,-121.64172)"/>
    <linearGradient xlink:href="#linearGradient3674" id="linearGradient4341" gradientUnits="userSpaceOnUse" x1="83.143379" y1="300.87646" x2="261.61111" y2="300.87646" gradientTransform="translate(-69.78125,-121.64172)"/>
    <linearGradient xlink:href="#linearGradient3674" id="linearGradient4343" gradientUnits="userSpaceOnUse" x1="249.26578" y1="300.8811" x2="403.02097" y2="300.8811" gradientTransform="translate(-69.78125,-121.64172)"/>
    <linearGradient xlink:href="#linearGradient3674" id="linearGradient4345" gradientUnits="userSpaceOnUse" x1="408.0249" y1="316.129" x2="651.62054" y2="316.129" gradientTransform="translate(-69.78125,-121.64172)"/>
    <linearGradient xlink:href="#linearGradient3674" id="linearGradient4347" gradientUnits="userSpaceOnUse" x1="585.24725" y1="305.13492" x2="742.0885" y2="305.13492" gradientTransform="translate(-69.78125,-121.64172)"/>
    <linearGradient xlink:href="#linearGradient3674" id="linearGradient4349" gradientUnits="userSpaceOnUse" x1="754.02338" y1="311.45743" x2="878.04388" y2="311.45743" gradientTransform="translate(-69.78125,-121.64172)"/>
    <linearGradient xlink:href="#linearGradient3674" id="linearGradient4351" gradientUnits="userSpaceOnUse" x1="862.0484" y1="313.45859" x2="1031.2421" y2="313.45859" gradientTransform="translate(-69.78125,-121.64172)"/>
    <clipPath clipPathUnits="userSpaceOnUse" id="clipPath8738">
      <path id="path8740" style="fill:#ff0000;fill-opacity:1;fill-rule:nonzero;stroke:none" d="M 10.955078,62.953125 V 366.42773 H 600.42773 c 0.67344,-0.90021 2.09386,-1.63823 2.95704,-2.37695 0.57806,-0.49472 1.40886,-0.57349 2.10742,-0.875 0.51196,-0.22098 0.62894,-0.27772 1.02343,-0.44922 0.19007,-0.65415 0.31081,-1.04826 0.53711,-1.86133 0.127,-0.45627 1.39454,-0.73014 2.63477,-0.89843 0.22893,-1.43231 0.46526,-2.91019 0.66016,-4.14453 0.19617,-1.24244 0.51829,-2.31273 0.92187,-3.23438 0.047,-0.38694 0.11227,-0.80167 0.22852,-1.2832 1.10372,-4.57198 2.92825,-6.52811 6.8457,-8.15625 6.21017,-2.58104 6.40454,-2.09557 12.75586,-2.49024 0.21477,0.0623 0.44096,0.10483 0.66211,0.15625 0.37598,-0.30941 0.76489,-0.60087 1.1875,-0.84765 0.88486,-0.51672 1.74343,-0.72568 2.56055,-0.70313 3.54084,0.0977 6.32852,4.52571 7.36132,6.92969 0.18753,0.4365 0.2098,0.90156 0.15821,1.37695 1.06311,-0.23074 2.31147,-0.48138 3.72656,-0.75195 3.56287,-1.26694 7.31153,-2.57263 11.08984,-2.26172 0.94715,-0.26316 1.89998,-0.50452 2.86133,-0.70703 0.79271,-0.16698 2.75656,-0.92221 2.42383,-0.18359 -0.0861,0.19102 -0.19042,0.37213 -0.28125,0.56054 0.62689,0.0553 1.34125,0.42357 1.96484,0.53906 1.13106,0.2095 2.24811,0.46611 3.35938,0.74024 0.70066,-0.53677 1.18885,-0.89604 2.19922,-1.69922 1.53496,-0.64607 2.97574,-1.59472 4.60547,-1.9375 1.54371,-0.32469 3.18351,-0.53229 4.86328,-0.66016 1.57769,-1.18305 3.38954,-2.5293 5.78906,-4.44531 5.14688,-3.12221 10.20115,-6.40438 15.44141,-9.36719 2.15763,-1.2199 4.33434,-2.42673 6.5664,-3.50781 0.92828,-0.79393 2.00275,-1.48227 3.28711,-2.02734 1.00026,-0.42451 2.38305,-1.1808 3.41406,-1.07227 0.15784,0.0166 0.30463,0.0597 0.44336,0.1211 0.695,-0.11992 1.32554,-0.0357 1.79492,0.45507 3.71065,3.87956 4.87171,6.3714 4.63868,8.51563 1.85545,0.0212 3.9977,0.36739 7.15625,1.21484 1.13578,0.30474 1.83489,1.52487 2.48633,2.50391 2.90232,4.36201 3.21826,6.12429 2.54101,9.42187 0.72019,0.0412 1.49932,0.13328 3.45899,0.3379 1.06573,0.66723 2.21001,1.23379 3.31445,1.85156 1.01437,-0.47373 2.05757,-0.83027 3.16797,-0.92188 1.00622,-0.083 1.94705,0.28891 2.85937,0.79883 6.5e-4,3e-5 10e-4,-3e-5 0.002,0 1.05333,0.0531 2.09886,0.18076 3.13477,0.37891 -0.76267,-2.39385 -0.48194,-2.95386 2.20508,-3.57032 1.74777,-0.40097 1.21896,-0.65302 1.91015,-0.24609 -0.0411,0.0657 -0.12381,0.179 -0.17968,0.26172 0.0332,-0.004 0.0664,-0.008 0.0996,-0.0117 0.0526,-0.0942 0.10924,-0.18311 0.16406,-0.27344 -0.65921,-1.73102 0.14995,-3.55058 0.52734,-5.61328 1.49169,-0.88163 2.96917,-1.78729 4.47266,-2.64844 -0.10696,0.0315 -0.21466,0.0611 -0.32422,0.082 -0.22047,0.0421 0.0894,-0.0432 0.44141,-0.15039 0.12896,-0.0736 0.25533,-0.15186 0.38476,-0.22461 0.0679,-0.0382 0.30528,-0.0186 0.23438,0.0137 -0.13543,0.0616 -0.3858,0.13987 -0.61914,0.21094 -0.0393,0.0224 -0.078,0.0459 -0.11719,0.0684 0.39301,-0.11557 0.77454,-0.27993 1.17578,-0.36328 0.54074,-0.11234 0.9696,-0.15386 1.40039,-0.16406 0.43079,-0.0102 0.86382,0.0109 1.40625,0.0176 4.03436,0.39809 6.1237,0.76413 9.49805,2.62695 3.14741,-2.98107 6.4471,-5.28246 10.59765,-7.88867 1.38904,-0.8722 2.79286,-1.75201 4.3125,-2.36914 0.77067,-0.31298 1.90027,-1.0917 2.65235,-1.05664 0.25069,0.0117 0.46049,0.11368 0.59961,0.35351 0.87977,1.51667 1.3065,3.21571 1.62304,4.95899 1.28829,-0.60245 2.63414,-1.18946 4.07813,-1.78711 0.93801,-0.38824 2.05268,0.12859 3.04492,-0.0859 0.69134,-0.1495 1.33361,-0.47382 2,-0.71094 2.87672,1.6064 6.84823,2.04613 8.62891,4.81836 0.99563,1.55003 -1.19123,3.55679 -2.3086,5.02149 -0.84053,1.1018 -2.21849,1.66422 -3.375,2.42773 -2.78177,1.8365 -5.60618,3.61035 -8.45703,5.3418 0.46651,1.19885 0.85994,2.41104 0.91797,3.6875 0.0564,1.24068 -0.79605,2.3417 -1.69922,3.30664 0.21062,-0.0313 0.41977,-0.0731 0.63086,-0.10156 0.0418,-0.0521 0.106,-0.13533 0.14453,-0.1836 1.84406,-2.30999 10.10846,-2.91736 12.41407,-3.16406 1.48395,-0.15878 2.97659,-0.22252 4.46484,-0.33398 0.58309,0.0886 1.00571,0.1478 1.43164,0.20898 0.67083,-0.38437 1.33886,-0.77428 2.02344,-1.13281 0.82593,-0.43256 2.07868,-1.74018 2.61914,-0.98047 1.04048,1.46257 1.852,2.66594 2.55664,3.75781 0.72503,-0.92006 1.49976,-1.80992 2.20117,-2.74414 1.12188,-0.53418 2.13158,-1.45271 3.36524,-1.60156 0.47572,-0.0574 0.95757,0.0274 1.43554,0.01 -0.17028,-1.29033 -0.18102,-2.02351 -0.17383,-3.22266 -1.89506,-1.86255 -2.64932,-3.43054 1.34766,-3.61914 0.30573,-0.0144 0.61186,-0.0364 0.91797,-0.0625 1.14732,-1.27107 2.30451,-2.5316 3.55469,-3.69922 0.0489,-0.0456 0.10642,-0.0696 0.16992,-0.0781 0.0993,-0.0134 0.21211,0.007 0.32617,0.0312 0.76224,-0.94934 1.92034,-1.24095 3.13867,-1.22656 1.09824,0.013 2.15843,0.24933 3.05078,0.40235 0.29682,-2.35596 1.40504,-4.29118 3.33789,-3.94727 1.46491,0.003 2.93409,0.0635 4.39649,-0.0176 0.99199,-0.0344 1.8686,0.0207 2.80664,0.11914 0.82935,-0.48373 1.7035,-0.85764 2.63476,-0.90039 0.11482,-0.005 0.2282,-0.008 0.33985,-0.008 1.07952,0.006 1.96975,0.34577 2.78125,0.80664 0.81508,-0.4186 1.8057,-0.6429 2.93945,-0.5957 1.4257,0.0593 3.07512,0.54401 4.87695,1.59375 2.18897,1.27527 4.66166,2.08851 6.82227,3.41015 0.59015,0.36099 1.65955,0.51963 1.68555,1.21094 0.11955,3.17338 -0.85697,6.29281 -1.28516,9.43945 -1.49963,11.02011 -3.96493,-21.12001 -5.02344,-10.04882 -0.29327,3.0674 -0.74946,6.12273 -0.88281,9.20117 0.15972,0.0829 0.32148,0.16183 0.48047,0.24609 0.15458,0.0819 -0.48985,-0.0342 -0.48242,-0.20898 5.2e-4,-0.0124 7.5e-4,-0.0247 0.002,-0.0371 -1.51414,-0.78586 -3.05703,-1.51925 -4.58594,-2.27735 -0.23443,0.59824 -0.5383,1.13876 -0.9082,1.59961 0.005,0.003 0.0104,0.005 0.0156,0.008 2.42544,1.74509 3.40681,2.25306 1.26563,3.57421 1.54286,0.16421 3.09007,0.30053 4.61523,0.57813 1.07512,0.19569 2.50448,0.0837 3.12891,0.98047 1.01831,1.46246 2.0115,3.01457 2.8125,4.64062 0.35398,-0.0126 0.70932,-0.0265 1.0625,-0.0391 0.15372,-0.005 0.29586,10e-4 0.44531,0 -0.0545,-2.29733 0.16549,-4.61028 0.92774,-6.73828 0.41325,-1.15366 2.22587,-1.08903 3.42578,-1.33789 3.74836,-0.77742 6.68037,-0.80379 9.9707,-0.70313 0.17894,-0.0754 0.35662,-0.1532 0.53711,-0.22461 1.26263,-0.49952 2.70918,-0.16815 4.06445,-0.25195 3.84045,-0.0169 7.32608,-0.26414 11.09571,0.47852 0.54159,0.1067 1.08259,0.2208 1.62304,0.33593 0.79121,-10e-4 1.51155,10e-4 2.59375,-0.008 1.38786,-0.01 2.78953,0.14279 4.16407,-0.0488 0.39408,-0.0551 0.67159,-0.20844 0.99023,-0.32812 0.3392,-0.30106 0.67727,-0.60211 1.00195,-0.91602 0.32731,-0.0272 0.56032,-0.0547 0.8418,-0.082 0.85152,-0.63657 1.61147,-1.22798 2.81445,-1.12109 0.6422,0.0571 1.49629,0.42702 2.48438,0.98437 0.59499,0.17328 1.35248,0.44879 2.48437,0.86914 0.69816,0.25928 1.28027,0.89877 2.02344,0.94727 0.73113,0.0477 1.37115,-0.53522 2.08985,-0.67774 2.54353,-0.50414 3.68566,-0.42573 6.13867,-0.46093 1.85266,1.58098 4.44523,2.57598 5.55859,4.74219 0.75589,1.47064 -0.32734,3.2929 -0.58789,4.92578 -0.14207,0.8904 -0.3603,1.7483 -0.63281,2.58398 2.12002,0.97158 3.90855,2.44515 4.67969,4.61133 0.64269,1.80539 0.18758,3.89343 -0.78711,5.75976 H 986.2364 V 62.953125 Z M 759.35938,333.62695 c -0.25136,-0.0316 -0.34607,0.0755 -0.17774,0.39063 0.11251,0.2106 0.24587,0.40458 0.38672,0.5918 0.57033,-0.0856 1.11334,-0.13089 1.63086,-0.14454 -0.73635,-0.4337 -1.46414,-0.79066 -1.83984,-0.83789 z m -5.58204,5.19727 c -0.2565,1.70372 -0.20456,2.19221 0.10743,2.30664 0.28163,-0.34979 0.60856,-0.62836 1.04882,-0.74024 0.0927,-0.0236 0.17707,-0.0404 0.26758,-0.0625 -0.42566,-0.46816 -0.88386,-0.96122 -1.42383,-1.5039 z m -32.88281,2.15625 c -0.0707,-7.6e-4 -0.63978,0.12631 -1.40625,0.30859 0.73587,-0.0993 1.53813,-0.30717 1.40625,-0.30859 z m 32.0957,1.34375 c -0.65527,0.92631 -1.551,2.13309 -1.00195,1.66601 0.42641,-0.36274 0.72709,-0.88714 1.01563,-1.42187 -0.005,-0.0814 -0.009,-0.1628 -0.0137,-0.24414 z m -120.31445,4.2793 c -0.0367,0.004 -0.0784,0.0107 -0.11719,0.0156 -0.0142,0.0469 -0.0373,0.11096 -0.0508,0.15625 0.0962,-0.0568 0.19236,-0.11246 0.28711,-0.17187 -0.0438,0.002 -0.069,-0.005 -0.11914,0 z m 235.01953,3.06445 c -0.20245,0.0961 -0.43563,0.17049 -0.67578,0.24023 0.15758,-0.001 0.31508,-0.003 0.47266,-0.004 0.0677,-0.0789 0.29702,-0.28093 0.20312,-0.23633 z m -47.90625,7.7793 c -0.0582,0.0139 -0.0987,0.029 -0.1582,0.043 -1.10961,0.63096 -2.20923,1.27782 -3.2832,1.9668 -0.31192,0.2001 -0.41234,0.26764 -0.69532,0.44922 -0.0454,1.43577 -1.29223,3.31969 -3.01757,6.0332 1.25362,-0.73395 2.6165,-1.52224 2.74218,-1.5957 0.95973,-0.57035 1.49074,-0.85016 2.18164,-1.25391 0.0904,-0.50893 0.19722,-1.01434 0.35157,-1.50781 0.32609,-1.04257 1.07907,-1.89984 1.6289,-2.84375 0.1322,-0.22694 0.26617,-0.45588 0.39844,-0.68359 -0.0651,-0.19855 -0.0897,-0.40678 -0.14844,-0.60742 z m 66.09766,7.9082 c -0.15757,-0.008 1.20322,0.60626 2.31055,1.07226 h 0.43164 c -0.83215,-0.36306 -1.66705,-0.72067 -2.52539,-1.01171 -0.12091,-0.041 -0.19044,-0.0593 -0.2168,-0.0605 z m -4.77344,0.7832 c -0.0292,0.097 -0.0612,0.19246 -0.0918,0.28906 h 0.84375 c -0.27058,-0.0541 -0.49031,-0.21601 -0.75195,-0.28906 z"/>
    </clipPath>
    <clipPath clipPathUnits="userSpaceOnUse" id="clipPath8748">
      <path id="path8750" style="fill:#ff0000;fill-opacity:1;fill-rule:nonzero;stroke:none" d="M 0,42.259766 V 345.73633 h 614.22461 c 1.03734,-1.06342 2.36779,-1.86001 4.11914,-2.58789 6.21017,-2.58104 6.40454,-2.09557 12.75586,-2.49024 0.21477,0.0623 0.44096,0.10483 0.66211,0.15625 0.37598,-0.30941 0.76489,-0.60087 1.1875,-0.84765 0.88486,-0.51672 1.74343,-0.72568 2.56055,-0.70313 3.33533,0.0921 5.98297,4.00706 7.14453,6.47266 h 7.29687 c 2.58083,-0.80842 5.2294,-1.399 7.89453,-1.17969 0.94715,-0.26316 1.89998,-0.50452 2.86133,-0.70703 0.79271,-0.16698 2.75656,-0.92221 2.42383,-0.18359 -0.0861,0.19102 -0.19042,0.37213 -0.28125,0.56054 0.62689,0.0553 1.34125,0.42356 1.96484,0.53906 1.13106,0.2095 2.24811,0.46611 3.35938,0.74024 0.70066,-0.53677 1.18885,-0.89604 2.19922,-1.69922 1.53496,-0.64607 2.97574,-1.59472 4.60547,-1.9375 1.54371,-0.32469 3.18351,-0.53229 4.86328,-0.66016 1.57769,-1.18305 3.38954,-2.5293 5.78906,-4.44531 5.14688,-3.12221 10.20115,-6.40438 15.44141,-9.36719 2.15763,-1.2199 4.33434,-2.42673 6.5664,-3.50781 0.92828,-0.79393 2.00275,-1.48227 3.28711,-2.02734 1.00026,-0.42451 2.38305,-1.1808 3.41406,-1.07227 0.15784,0.0166 0.30463,0.0597 0.44336,0.1211 0.695,-0.11992 1.32556,-0.0357 1.79492,0.45507 3.71065,3.87956 4.87171,6.3714 4.63868,8.51563 1.85545,0.0212 3.9977,0.36739 7.15625,1.21484 1.13578,0.30474 1.83487,1.52487 2.48633,2.50391 2.90232,4.36201 3.21826,6.12429 2.54101,9.42187 0.72019,0.0412 1.49931,0.13328 3.45899,0.3379 1.06289,0.66545 2.19449,1.2433 3.29296,1.86328 1.02129,-0.47884 2.07103,-0.84133 3.18946,-0.9336 0.9689,-0.0799 1.86619,0.30884 2.74609,0.79102 1.09243,0.0488 2.17623,0.18133 3.25,0.38672 -0.76267,-2.39385 -0.48194,-2.95386 2.20508,-3.57032 1.74777,-0.40097 1.21896,-0.65302 1.91015,-0.24609 -0.0411,0.0657 -0.12381,0.179 -0.17968,0.26172 0.0332,-0.004 0.0664,-0.008 0.0996,-0.0117 0.0526,-0.0942 0.10924,-0.18311 0.16406,-0.27344 -0.65921,-1.73102 0.14995,-3.55058 0.52734,-5.61328 1.49169,-0.88163 2.96917,-1.78729 4.47266,-2.64844 -0.10696,0.0315 -0.21466,0.0611 -0.32422,0.082 -0.22047,0.0421 0.0894,-0.0432 0.44141,-0.15039 0.12896,-0.0736 0.25533,-0.15186 0.38476,-0.22461 0.0679,-0.0382 0.30528,-0.0186 0.23438,0.0137 -0.13543,0.0616 -0.3858,0.13987 -0.61914,0.21094 -0.0393,0.0224 -0.078,0.0459 -0.11719,0.0684 0.39301,-0.11557 0.77454,-0.27993 1.17578,-0.36328 0.54074,-0.11234 0.9696,-0.15386 1.40039,-0.16406 0.43079,-0.0102 0.86382,0.0109 1.40625,0.0176 4.03436,0.39809 6.1237,0.76413 9.49805,2.62695 3.14741,-2.98107 6.4471,-5.28246 10.59765,-7.88867 1.38904,-0.8722 2.79286,-1.75201 4.3125,-2.36914 0.77067,-0.31298 1.90027,-1.0917 2.65235,-1.05664 0.25069,0.0117 0.46049,0.11368 0.59961,0.35351 0.87977,1.51667 1.3065,3.21571 1.62304,4.95899 1.28829,-0.60245 2.63414,-1.18946 4.07813,-1.78711 0.93801,-0.38824 2.05268,0.12859 3.04492,-0.0859 0.69134,-0.1495 1.33361,-0.47382 2,-0.71094 2.87672,1.6064 6.84823,2.04613 8.62891,4.81836 0.99563,1.55003 -1.19123,3.55679 -2.3086,5.02149 -0.84053,1.1018 -2.21849,1.66422 -3.375,2.42773 -2.78177,1.8365 -5.60618,3.61035 -8.45703,5.3418 0.15917,0.40965 0.34269,0.81472 0.46875,1.23047 h 21.51172 c 0.34447,-0.16653 0.65148,-0.20744 0.875,0 h 6.75586 c 0.46378,-0.24836 0.94117,-0.44924 1.45899,-0.51172 0.47572,-0.0574 0.95757,0.0278 1.43554,0.01 -0.17028,-1.29033 -0.18102,-2.02351 -0.17383,-3.22266 -1.89506,-1.86255 -2.64932,-3.43054 1.34766,-3.61914 0.30573,-0.0144 0.61186,-0.0364 0.91797,-0.0625 1.14732,-1.27107 2.30451,-2.5316 3.55469,-3.69922 0.0489,-0.0456 0.10642,-0.0696 0.16992,-0.0781 0.0993,-0.0134 0.21211,0.007 0.32617,0.0312 0.76224,-0.94934 1.92034,-1.24095 3.13867,-1.22656 1.09824,0.013 2.15843,0.24933 3.05078,0.40235 0.29682,-2.35596 1.40504,-4.29118 3.33789,-3.94727 1.46491,0.003 2.93409,0.0635 4.39649,-0.0176 0.99199,-0.0344 1.8686,0.0207 2.80664,0.11914 0.82935,-0.48373 1.7035,-0.85764 2.63476,-0.90039 0.11482,-0.005 0.2282,-0.008 0.33985,-0.008 1.07952,0.006 1.96975,0.34577 2.78125,0.80664 0.81508,-0.4186 1.8057,-0.6429 2.93945,-0.5957 1.4257,0.0593 3.07512,0.54401 4.87695,1.59375 2.18897,1.27527 4.66166,2.08851 6.82227,3.41015 0.59015,0.36099 1.65955,0.51963 1.68555,1.21094 0.11955,3.17338 -0.85697,6.29281 -1.28516,9.43945 -0.0445,0.32734 -0.0886,0.6118 -0.13477,0.86524 h 3.49415 c 0.73141,-0.52116 2.01435,-0.53275 2.93945,-0.72461 3.74836,-0.77742 6.68037,-0.80379 9.9707,-0.70313 0.17894,-0.0754 0.35662,-0.1532 0.53711,-0.22461 1.26263,-0.49952 2.70918,-0.16815 4.06445,-0.25195 3.84045,-0.0169 7.32608,-0.26414 11.09571,0.47852 0.54159,0.1067 1.08259,0.2208 1.62304,0.33593 0.79121,-10e-4 1.51155,0.001 2.59375,-0.008 1.38786,-0.01 2.78953,0.14288 4.16407,-0.0488 0.39408,-0.0551 0.67159,-0.20844 0.99023,-0.32812 0.3392,-0.30106 0.67727,-0.60211 1.00195,-0.91602 0.32731,-0.0272 0.56032,-0.0547 0.8418,-0.082 0.85152,-0.63657 1.61147,-1.22798 2.81445,-1.12109 0.6422,0.0571 1.49629,0.42702 2.48438,0.98437 0.59499,0.17328 1.35248,0.44879 2.48437,0.86914 0.69816,0.25928 1.28027,0.89877 2.02344,0.94727 0.73113,0.0477 1.37115,-0.53524 2.08985,-0.67774 2.54353,-0.50414 3.68566,-0.42573 6.13867,-0.46093 0.829,0.70743 1.80203,1.30142 2.72851,1.93164 h 39.74805 V 42.259766 Z M 867.1543,332.46875 c -0.22504,-0.0506 -0.42445,0.62364 -0.58985,2.35352 -0.29327,3.0674 -0.74946,6.12273 -0.88281,9.20117 0.15972,0.0829 0.32148,0.16183 0.48047,0.24609 0.15458,0.0819 -0.48985,-0.0342 -0.48242,-0.20898 5.2e-4,-0.0124 8.5e-4,-0.0247 0.002,-0.0371 -1.51414,-0.78586 -3.05703,-1.51925 -4.58594,-2.27735 -0.23443,0.59824 -0.5383,1.13876 -0.9082,1.59961 0.005,0.003 0.0104,0.005 0.0156,0.008 1.56453,1.12568 2.52753,1.73657 2.44141,2.38281 h 7.4707 c -1.03525,-3.69178 -2.1586,-13.08727 -2.96093,-13.26758 z m -107.79492,1.1582 c -0.25136,-0.0316 -0.34607,0.0755 -0.17774,0.39063 0.11251,0.2106 0.24587,0.40458 0.38672,0.5918 0.57033,-0.0856 1.11334,-0.13089 1.63086,-0.14454 -0.73635,-0.4337 -1.46414,-0.79066 -1.83984,-0.83789 z m -5.58204,5.19727 c -0.2565,1.70372 -0.20456,2.19221 0.10743,2.30664 0.28163,-0.34979 0.60856,-0.62836 1.04882,-0.74024 0.0927,-0.0236 0.17707,-0.0404 0.26758,-0.0625 -0.42566,-0.46816 -0.88386,-0.96122 -1.42383,-1.5039 z m -32.88281,2.15625 c -0.0707,-7.6e-4 -0.63978,0.12631 -1.40625,0.30859 0.73587,-0.0993 1.53813,-0.30717 1.40625,-0.30859 z m 32.0957,1.34375 c -0.65527,0.92631 -1.551,2.13309 -1.00195,1.66601 0.42641,-0.36274 0.72709,-0.88714 1.01563,-1.42187 -0.005,-0.0814 -0.009,-0.1628 -0.0137,-0.24414 z"/>
    </clipPath>
    <clipPath clipPathUnits="userSpaceOnUse" id="clipPath8758">
      <path id="path8760" style="fill:#ff0000;fill-opacity:1;fill-rule:nonzero;stroke:none" d="M 7.78125,50.160156 V 337.65625 h 676.70508 c 0.39319,-0.30826 0.71584,-0.55027 1.14453,-0.89258 5.14688,-3.12221 10.20115,-6.40438 15.44141,-9.36719 2.15763,-1.2199 4.33434,-2.42673 6.5664,-3.50781 0.92828,-0.79393 2.00275,-1.48227 3.28711,-2.02734 1.00026,-0.42451 2.38305,-1.1808 3.41406,-1.07227 0.15784,0.0166 0.30463,0.0597 0.44336,0.1211 0.695,-0.11992 1.32554,-0.0357 1.79492,0.45507 3.71065,3.87956 4.87171,6.3714 4.63868,8.51563 1.85545,0.0212 3.9977,0.36739 7.15625,1.21484 1.13578,0.30474 1.83488,1.52487 2.48633,2.50391 1.09762,1.64967 1.82361,2.92697 2.26757,4.05664 h 20.57032 c 0.12914,-0.53184 0.26378,-1.07741 0.36718,-1.64258 1.49169,-0.88163 2.96917,-1.78729 4.47266,-2.64844 -0.10696,0.0315 -0.21466,0.0611 -0.32422,0.082 -0.22047,0.0421 0.0894,-0.0432 0.44141,-0.15039 0.12896,-0.0736 0.25533,-0.15186 0.38476,-0.22461 0.0679,-0.0382 0.30528,-0.0186 0.23438,0.0137 -0.13543,0.0616 -0.3858,0.13987 -0.61914,0.21094 -0.0393,0.0224 -0.078,0.0459 -0.11719,0.0684 0.39301,-0.11557 0.77454,-0.27993 1.17578,-0.36328 0.54074,-0.11234 0.9696,-0.15386 1.40039,-0.16406 0.43079,-0.0102 0.86382,0.0109 1.40625,0.0176 4.07738,0.40234 6.17276,0.7761 9.61133,2.69141 3.12457,-2.95193 6.36735,-5.36797 10.48437,-7.95313 1.38904,-0.8722 2.79286,-1.75201 4.3125,-2.36914 0.77067,-0.31298 1.90027,-1.0917 2.65235,-1.05664 0.25069,0.0117 0.46049,0.11368 0.59961,0.35351 0.87977,1.51667 1.3065,3.21571 1.62304,4.95899 1.28829,-0.60245 2.63414,-1.18946 4.07813,-1.78711 0.93801,-0.38824 2.05268,0.12859 3.04492,-0.0859 0.69134,-0.1495 1.33361,-0.47382 2,-0.71094 2.87672,1.6064 6.84823,2.04613 8.62891,4.81836 0.99563,1.55003 -1.19123,3.55679 -2.3086,5.02149 -0.27154,0.35595 -0.60279,0.65159 -0.96093,0.91992 H 830.625 c 0.94858,-1.04078 1.91301,-2.0649 2.94141,-3.02539 0.0489,-0.0456 0.10642,-0.0696 0.16992,-0.0781 0.0993,-0.0134 0.21211,0.007 0.32617,0.0312 0.76224,-0.94941 1.9203,-1.24095 3.13867,-1.22656 1.09824,0.013 2.15843,0.24933 3.05078,0.40235 0.29682,-2.35596 1.40504,-4.29118 3.33789,-3.94727 1.46491,0.003 2.93409,0.0635 4.39649,-0.0176 0.99199,-0.0344 1.8686,0.0207 2.80664,0.11914 0.82935,-0.48373 1.7035,-0.85764 2.63476,-0.90039 0.11482,-0.005 0.2282,-0.008 0.33985,-0.008 1.07952,0.006 1.96975,0.34577 2.78125,0.80664 0.81508,-0.4186 1.8057,-0.6429 2.93945,-0.5957 1.4257,0.0593 3.07512,0.54401 4.87695,1.59375 2.18897,1.27527 4.66166,2.08851 6.82227,3.41015 0.59015,0.36099 1.65955,0.51963 1.68555,1.21094 0.028,0.74427 -0.009,1.48523 -0.0801,2.22461 h 94.39648 V 50.160156 Z M 867.1543,332.46875 c -0.22504,-0.0506 -0.42445,0.62364 -0.58985,2.35352 -0.0904,0.94552 -0.1956,1.88972 -0.30273,2.83398 h 2.26172 c -0.5012,-2.77261 -0.97466,-5.09885 -1.36914,-5.1875 z m -107.79492,1.1582 c -0.25136,-0.0316 -0.34607,0.0755 -0.17774,0.39063 0.11251,0.2106 0.24587,0.40458 0.38672,0.5918 0.57033,-0.0856 1.11334,-0.13089 1.63086,-0.14454 -0.73635,-0.4337 -1.46414,-0.79066 -1.83984,-0.83789 z"/>
    </clipPath>
    <clipPath clipPathUnits="userSpaceOnUse" id="clipPath8768">
      <path id="path8770" style="fill:#ff0000;fill-opacity:1;fill-rule:nonzero;stroke:none" d="m 612,332.19336 v 17.37305 c 1.14529,-3.36044 2.96483,-5.01365 6.34375,-6.41797 6.21017,-2.58104 6.40454,-2.09557 12.75586,-2.49024 0.21477,0.0623 0.44096,0.10483 0.66211,0.15625 0.37598,-0.30941 0.76489,-0.60087 1.1875,-0.84765 0.88486,-0.51672 1.74343,-0.72568 2.56055,-0.70313 3.54084,0.0977 6.32852,4.52571 7.36132,6.92969 0.18753,0.4365 0.2098,0.90156 0.15821,1.37695 1.06311,-0.23074 2.31147,-0.48138 3.72656,-0.75195 3.56287,-1.26694 7.31153,-2.57263 11.08984,-2.26172 0.94715,-0.26316 1.89998,-0.50452 2.86133,-0.70703 0.79271,-0.16698 2.75656,-0.92221 2.42383,-0.18359 -0.0861,0.19102 -0.19042,0.37213 -0.28125,0.56054 0.62689,0.0553 1.34125,0.42357 1.96484,0.53906 1.13106,0.2095 2.24811,0.46611 3.35938,0.74024 0.70066,-0.53677 1.18885,-0.89604 2.19922,-1.69922 1.53496,-0.64607 2.97574,-1.59472 4.60547,-1.9375 1.54371,-0.32469 3.18351,-0.53229 4.86328,-0.66016 1.57769,-1.18305 3.38954,-2.5293 5.78906,-4.44531 2.47923,-1.50396 4.9369,-3.04569 7.4043,-4.57031 z m 117.87109,0 c 0.36463,0.44458 0.68403,0.94905 0.98829,1.40625 2.90232,4.36201 3.21826,6.12429 2.54101,9.42187 0.72019,0.0412 1.49932,0.13328 3.45899,0.3379 1.06762,0.6684 2.21995,1.22856 3.32617,1.84765 1.01088,-0.47115 2.04991,-0.82669 3.15625,-0.91797 1.00622,-0.083 1.94705,0.28891 2.85937,0.79883 6.5e-4,3e-5 10e-4,-3e-5 0.002,0 1.05333,0.0531 2.09886,0.18076 3.13477,0.37891 -0.76267,-2.39385 -0.48194,-2.95386 2.20508,-3.57032 1.74777,-0.40097 1.21896,-0.65302 1.91015,-0.24609 -0.0411,0.0657 -0.12381,0.179 -0.17968,0.26172 0.0332,-0.004 0.0664,-0.008 0.0996,-0.0117 0.0526,-0.0942 0.10924,-0.18311 0.16406,-0.27344 -0.65921,-1.73102 0.14995,-3.55058 0.52734,-5.61328 1.49169,-0.88163 2.96917,-1.78729 4.47266,-2.64844 -0.10696,0.0315 -0.21466,0.0611 -0.32422,0.082 -0.22047,0.0421 0.0894,-0.0432 0.44141,-0.15039 0.12896,-0.0736 0.25533,-0.15186 0.38476,-0.22461 0.0679,-0.0382 0.30528,-0.0186 0.23438,0.0137 -0.13543,0.0616 -0.3858,0.13987 -0.61914,0.21094 -0.0393,0.0224 -0.078,0.0459 -0.11719,0.0684 0.39301,-0.11557 0.77454,-0.27993 1.17578,-0.36328 0.54074,-0.11234 0.9696,-0.15386 1.40039,-0.16406 0.43079,-0.0102 0.86382,0.0109 1.40625,0.0176 4.02053,0.39673 6.10696,0.76125 9.46094,2.60742 1.2422,-1.17596 2.50382,-2.25826 3.83789,-3.26953 z m 79.88282,0 c 0.36199,1.46834 -1.50208,3.2246 -2.50782,4.54297 -0.84053,1.1018 -2.21849,1.66422 -3.375,2.42773 -2.78177,1.8365 -5.60618,3.61035 -8.45703,5.3418 0.46651,1.19885 0.85994,2.41104 0.91797,3.6875 0.0564,1.24068 -0.79605,2.3417 -1.69922,3.30664 0.21062,-0.0313 0.41977,-0.0731 0.63086,-0.10156 0.0418,-0.0521 0.106,-0.13533 0.14453,-0.1836 1.84406,-2.30999 10.10846,-2.91736 12.41407,-3.16406 1.48395,-0.15878 2.97659,-0.22252 4.46484,-0.33398 0.58309,0.0886 1.00571,0.1478 1.43164,0.20898 0.67083,-0.38437 1.33886,-0.77428 2.02344,-1.13281 0.82593,-0.43256 2.07868,-1.74018 2.61914,-0.98047 1.02936,1.44694 1.83656,2.64082 2.53711,3.72461 0.72219,-0.91463 1.52298,-1.78163 2.2207,-2.71094 1.12188,-0.53418 2.13158,-1.45271 3.36524,-1.60156 0.47343,-0.0571 0.95013,-0.0549 1.42578,-0.0742 -0.15588,-1.19057 -0.17073,-1.95048 -0.16407,-3.04883 -1.99207,-1.91741 -2.7363,-3.51627 1.34766,-3.70898 0.30573,-0.0144 0.61186,-0.0364 0.91797,-0.0625 1.14732,-1.27107 2.30451,-2.5316 3.55469,-3.69922 0.0489,-0.0456 0.10642,-0.0696 0.16992,-0.0781 0.0929,-0.0125 0.19815,0.007 0.30469,0.0293 0.76185,-0.9619 1.93527,-1.23908 3.16015,-1.22461 1.08688,0.0129 2.16474,0.23363 3.05274,0.38672 0.0699,-0.54793 0.18353,-1.07243 0.34179,-1.55078 z m 57.375,0 c 1.38055,0.63058 2.77348,1.24124 4.05859,2.02734 0.59015,0.36099 1.65955,0.51963 1.68555,1.21094 0.11955,3.17338 -0.85697,6.29281 -1.28516,9.43945 -1.49963,11.02011 -3.96493,-21.12001 -5.02344,-10.04882 -0.29327,3.0674 -0.74946,6.12273 -0.88281,9.20117 0.15972,0.0829 0.32148,0.16183 0.48047,0.24609 0.15458,0.0819 -0.48985,-0.0342 -0.48242,-0.20898 5.2e-4,-0.0124 7.5e-4,-0.0247 0.002,-0.0371 -1.51414,-0.78586 -3.05703,-1.51925 -4.58594,-2.27735 -0.23443,0.59824 -0.5383,1.13876 -0.9082,1.59961 0.005,0.003 0.0104,0.005 0.0156,0.008 2.40771,1.73235 3.39869,2.24509 1.31836,3.54492 1.52708,0.16263 3.05293,0.33266 4.5625,0.60742 1.07512,0.19569 2.50448,0.0837 3.12891,0.98047 1.01831,1.46246 2.0115,3.01457 2.8125,4.64062 0.35398,-0.0126 0.70932,-0.0265 1.0625,-0.0391 0.10989,-0.004 0.21065,0.002 0.31836,0 -0.052,-2.2914 0.29447,-4.61595 1.05469,-6.73828 0.41325,-1.15366 2.22587,-1.08903 3.42578,-1.33789 3.74836,-0.77742 6.68037,-0.80379 9.9707,-0.70313 0.17894,-0.0754 0.35662,-0.1532 0.53711,-0.22461 1.26263,-0.49952 2.70918,-0.16815 4.06445,-0.25195 3.84045,-0.0169 7.32608,-0.26414 11.09571,0.47852 0.54159,0.1067 1.08259,0.2208 1.62304,0.33593 0.79121,-0.001 1.51155,10e-4 2.59375,-0.008 1.38786,-0.01 2.78953,0.14276 4.16407,-0.0488 0.31174,-0.0436 0.59041,-0.11744 0.85351,-0.20312 0.38663,-0.34113 0.76968,-0.68428 1.13867,-1.04102 0.32731,-0.0272 0.56032,-0.0547 0.8418,-0.082 0.85152,-0.63657 1.61147,-1.22798 2.81445,-1.12109 0.6422,0.0571 1.49629,0.42702 2.48438,0.98437 0.59499,0.17328 1.35248,0.44879 2.48437,0.86914 0.69816,0.25928 1.28027,0.89877 2.02344,0.94727 0.73113,0.0477 1.37115,-0.53524 2.08985,-0.67774 0.11891,-0.0236 0.22092,-0.0394 0.33398,-0.0605 v -12.01172 z m -107.76953,1.43359 c -0.25136,-0.0316 -0.34607,0.0755 -0.17774,0.39063 0.11251,0.2106 0.24587,0.40458 0.38672,0.5918 0.57033,-0.0856 1.11334,-0.13089 1.63086,-0.14454 -0.73635,-0.4337 -1.46414,-0.79066 -1.83984,-0.83789 z m -5.58204,5.19727 c -0.2565,1.70372 -0.20456,2.19221 0.10743,2.30664 0.28163,-0.34979 0.60856,-0.62836 1.04882,-0.74024 0.0927,-0.0236 0.17707,-0.0404 0.26758,-0.0625 -0.42566,-0.46816 -0.88386,-0.96122 -1.42383,-1.5039 z m -32.88281,2.15625 c -0.0707,-7.6e-4 -0.63978,0.12631 -1.40625,0.30859 0.73587,-0.0993 1.53813,-0.30717 1.40625,-0.30859 z m 32.0957,1.34375 c -0.65527,0.92631 -1.551,2.13309 -1.00195,1.66601 0.42641,-0.36274 0.72709,-0.88714 1.01563,-1.42187 -0.005,-0.0814 -0.009,-0.1628 -0.0137,-0.24414 z m -120.31445,4.2793 c -0.0367,0.004 -0.0784,0.0107 -0.11719,0.0156 -0.0142,0.0469 -0.0373,0.11096 -0.0508,0.15625 0.0962,-0.0568 0.19236,-0.11246 0.28711,-0.17187 -0.0438,0.002 -0.069,-0.005 -0.11914,0 z m 235.01953,3.06445 c -0.20245,0.0961 -0.43563,0.17049 -0.67578,0.24023 0.15758,-0.001 0.31508,-0.003 0.47266,-0.004 0.0677,-0.0789 0.29702,-0.28093 0.20312,-0.23633 z m -47.90429,7.7793 c -0.0589,0.014 -0.1,0.0289 -0.16016,0.043 -1.10961,0.63096 -2.20923,1.27782 -3.2832,1.9668 -0.31192,0.2001 -0.41234,0.26764 -0.69532,0.44922 -0.0455,1.43712 -1.29357,3.32332 -3.02148,6.04102 1.15229,-0.67013 2.62647,-1.5336 2.74609,-1.60352 0.96007,-0.57055 1.49146,-0.85578 2.1836,-1.26367 0.0901,-0.5056 0.19625,-1.00774 0.34961,-1.49805 0.32609,-1.04257 1.07907,-1.89984 1.6289,-2.84375 0.13236,-0.22723 0.26796,-0.4556 0.40039,-0.68359 -0.0652,-0.1986 -0.0896,-0.40681 -0.14843,-0.60742 z m 66.13671,7.95312 c 0.30742,0.18536 1.85963,0.88155 2.82422,1.26758 0.12056,-0.0116 0.24058,-0.0217 0.36133,-0.0312 -0.99265,-0.43466 -1.98505,-0.87325 -3.00976,-1.2207 -0.24182,-0.082 -0.27826,-0.0774 -0.17579,-0.0156 z m 3.18555,1.23633 c 0.0875,0.0383 0.17619,0.0731 0.26367,0.11133 0.0487,-0.0676 0.0735,-0.13979 0.0215,-0.13672 -0.0955,0.006 -0.18984,0.0179 -0.28516,0.0254 z m 0.26367,0.11133 c -0.0465,0.0645 -0.11341,0.12435 -0.16015,0.10742 -0.11435,-0.0414 -0.3117,-0.12621 -0.46485,-0.1875 -1.10587,0.10664 -2.20525,0.28958 -3.30859,0.42383 -1.40746,-0.38307 -2.94499,-0.49024 -4.35156,-0.875 -0.38284,1.25532 -0.88948,2.4754 -1.44922,3.61718 -0.24215,0.49394 -0.76342,0.64502 -1.36133,0.70313 -0.30066,1.7434 -0.69301,3.45394 -1.45898,5.0332 -0.42568,0.87765 -1.90119,0.46078 -2.8711,0.56446 -0.96767,0.1034 -9.42796,0.69946 -10.43945,0.01 -0.71838,-0.49188 -1.26375,-0.85188 -1.89649,-1.27734 -1.37455,0.91039 -3.06416,1.80886 -3.26953,0.84961 -3.03256,0.99034 -4.57485,1.48558 -8.79882,2.83203 -0.85722,0.27326 -1.56226,0.52782 -2.24219,0.77148 -0.19591,0.55325 -0.43153,1.13775 -0.72071,1.76563 -0.66368,1.44103 -2.27046,1.74307 -4.06836,1.77929 -0.4088,0.70281 -1.55186,0.54109 -3.05078,-0.0312 -0.22638,-3e-4 -0.42718,0.0245 -0.64648,0.0312 0.26445,0.65182 0.52458,1.30578 0.79492,1.95508 0.95158,2.6293 1.41813,4.6405 2.05078,6.37305 h 7.62891 c 0.16631,-1.62095 0.33202,-3.24196 0.49805,-4.86328 0.59468,-5.80773 2.88018,-0.21113 4.79296,4.86328 h 2.32422 c -0.13004,-1.34634 -0.26059,-2.69276 -0.39062,-4.03906 -0.6492,-0.14642 -2.61185,-0.47456 -1.94727,-0.43946 1.25214,0.0662 2.48158,0.36852 3.72461,0.53321 1.74597,0.23133 3.50194,0.38325 5.24219,0.65429 1.93688,0.30167 4.96996,-0.72107 5.7832,1.0625 0.32333,0.70911 0.54582,1.45767 0.69141,2.22852 H 927 v -15.37305 c -0.59347,0.0555 -1.37312,-0.13613 -2.38086,-0.64648 -1.76868,-0.89572 -4.19405,-1.04655 -5.30664,-2.6875 -0.20994,-0.30965 -0.39191,-0.5961 -0.57227,-0.88281 -0.12193,-0.0197 -0.25885,-0.0389 -0.3789,-0.0586 -0.14104,0.0917 -0.27348,0.16888 -0.41016,0.25196 -2.12333,4.84494 -7.52428,4.8855 -9.56445,0.12695 -2.18891,-0.72778 -4.31185,-1.73151 -6.23828,-2.6211 -2.17908,-0.27456 -4.35821,-0.54698 -6.53516,-0.83789 -1.11105,-0.14847 -2.24703,-0.2223 -3.31445,-0.56445 -0.99728,-0.31966 -1.96078,-0.7326 -2.92188,-1.15234 z m -246.67383,1.66015 c -0.0603,0.61289 0.0878,1.27483 0.20118,1.88086 0.0523,0.27944 0.56731,0.91699 0.57031,0.63282 0.01,-0.79386 -0.32926,-1.54954 -0.51953,-2.32227 -0.0767,-0.0568 -0.15014,-0.12334 -0.22656,-0.18164 -0.009,-0.003 -0.0165,-0.007 -0.0254,-0.01 z m -10.85351,0.3418 c -0.31586,0.0482 -0.96591,0.14769 -1.43945,0.21875 -0.26622,1.96508 -0.20006,4.06059 -1.21875,5.72852 -0.87399,1.43102 -2.67663,2.15146 -4.2793,2.64453 -4.42674,1.3619 -8.6629,0.18961 -12.91211,-0.92383 v 14.77539 h 35.78125 c -2.08333,-5.79359 -2.72727,-6.64571 -2.59375,-11.625 0.0226,-0.84113 0.12132,-1.60111 0.25977,-2.31445 -1.07438,0.53146 -2.16818,1.01069 -3.32813,1.30468 -1.75633,0.44515 -3.59555,-0.4639 -5.39258,-0.69531 -1.43406,-1.63702 -3.36324,-2.94611 -4.30078,-4.91016 -0.60801,-1.2737 -0.69379,-2.76679 -0.57617,-4.20312 z m 164.4082,0.44336 c -0.0643,0.0109 -0.80133,1.11936 -0.34179,0.61914 0.20711,-0.35219 0.36285,-0.62271 0.34179,-0.61914 z m 61.25,2.92187 c -0.0307,0.0724 -0.0707,0.14741 -0.12109,0.22461 -0.003,0.0331 -0.005,0.0665 -0.008,0.0996 -0.0212,0.21174 -0.15468,0.31038 -0.35938,0.33203 -0.0958,0.099 -0.20059,0.19879 -0.31836,0.30274 0.52491,0.46095 1.30933,0.58972 2.16211,0.64844 0.074,-0.16414 0.16439,-0.34866 0.25586,-0.53321 -0.59201,-0.39288 -1.12117,-0.74617 -1.61133,-1.07422 z m 5.85352,1.51172 c 0.15163,-0.13414 -0.33521,0.2376 -0.97461,0.69727 0.0234,0.014 0.0494,0.0243 0.0723,0.0391 0.0132,0.009 0.009,0.0152 0.0195,0.0234 0.37569,-0.32281 0.80902,-0.69449 0.88281,-0.75977 z m -56.54688,0.39844 c -0.18442,0.23462 -0.37699,0.4616 -0.56445,0.69336 0.20791,-0.11475 0.38602,-0.22428 0.5957,-0.33789 -0.0188,-0.11838 -0.015,-0.23696 -0.0312,-0.35547 z m -93.41601,2.24805 c -2.36119,1.75261 -2.2752,1.41056 1.47265,1.54687 -0.58671,-0.60833 -1.13021,-1.18541 -1.47265,-1.54687 z m -9.92383,2.13086 c -1.56023,1.19285 -3.13627,2.42115 -4.66406,3.66211 3.02921,0.67335 5.61607,2.05634 8.00586,6.03515 0.53924,0.8978 1.06232,1.97912 1.41211,3.0918 h 8.64648 c -1.09921,-0.62353 -1.98494,-1.32244 -2.64648,-2.0625 -1.23573,-0.0312 -2.45062,-0.14026 -3.53907,-0.66992 -2.47987,-1.20677 -4.17068,-3.61102 -6.25586,-5.41602 -0.0757,-1.4649 -0.74525,-3.1293 -0.95898,-4.64062 z m 97.98437,1.42382 c -1.66933,1.479 -3.495,2.80414 -5.55859,3.89063 -0.0201,0.0106 -0.0422,0.0171 -0.0625,0.0273 0.0699,0.39305 0.10448,0.71263 0.13672,1.02344 1.38214,-1.17469 3.52482,-1.99023 6.49609,-1.99023 h 0.4336 c -0.41987,-0.82775 -0.94004,-1.90862 -1.44532,-2.95118 z m -19.79296,5.9629 c 0.79424,1.58355 0.55009,3.59189 -0.11719,5.40234 h 4.68945 c -0.75849,-0.51622 -1.47814,-1.07207 -2.04687,-1.78516 -0.38247,-0.47953 -0.83972,-1.92239 -1.28321,-3.61718 -0.40629,0.0248 -0.82214,0.0185 -1.24218,0 z m 12.51171,2.90039 c -0.78709,0.88048 -1.69533,1.69015 -2.59765,2.50195 h 3.55664 c -0.59765,-0.76762 -0.89685,-1.6312 -0.95899,-2.50195 z"/>
    </clipPath>
  </defs>
  <g id="g4331" style="fill:#ec4b88;fill-opacity:1" transform="translate(-69.78125,-121.64172)">
    <path id="path3861" d="m 950.8125,121.6875 c -24.71458,-0.30456 -49.26752,0.86854 -73.65625,4.7812 C 830.1271,134.01355 799.75118,140.80088 751.5,155 c -41.56315,12.23099 -82.9741,27.14918 -124.46115,42.03437 0,0 9.3322,16.77767 9.3322,16.77767 44.63469,-18.80838 83.45821,-28.5031 125.44145,-38.84329 50.85063,-12.52417 103.7785,-26.12551 156.125,-17.375 26.70956,4.46491 36.19866,17.75243 30.6875,36.96875 -0.92948,3.2409 -4.19576,10.17076 -5.39653,10.93291 0,0 55.16035,-1.13833 55.16035,-1.13833 2.61568,-1.61662 12.70178,-16.40955 17.29868,-25.91958 5.2318,-10.82344 5.8495,-27.24586 1.2813,-34.21875 -4.832,-7.37523 -16.1771,-14.6382 -29.4688,-18.84375 -9.73171,-3.07915 -14.19727,-3.41035 -36.6875,-3.6875 z" style="fill:#ec4b88;fill-opacity:1;stroke:none"/>
    <path id="path3859" d="m 584.89223,213.52997 c 0,0 -8.23757,2.21401 -9.50309,3.62596 0,0 4.65701,6.2665 4.65701,6.2665 0,0 4.84608,-9.89246 4.84608,-9.89246 z" style="fill:#ec4b88;fill-opacity:1;stroke:none"/>
    <path id="path3855" d="m 681.32712,228.59656 c -7.7362,2.31054 -28.38118,8.01358 -28.38118,8.01358 0,0 1.53431,12.52844 1.53431,12.52844 9.29635,-2.34825 16.80054,-4.0349 24.56305,-6.40063 0,0 2.28382,-14.14139 2.28382,-14.14139 z" style="fill:#ec4b88;fill-opacity:1;stroke:none"/>
    <path id="path3853" d="m 769.49182,291.79764 c 0,0 -7.13104,4.99585 -8.42951,5.98173 0,0 -7.98944,28.71064 -7.98944,28.71064 9.72301,-4.30682 19.14597,-11.51378 27.11317,-18.33826 0,0 1.0866,-14.56298 1.0866,-14.56298 0,0 -11.78082,-1.79113 -11.78082,-1.79113 z" style="fill:#ec4b88;fill-opacity:1;stroke:none"/>
    <path id="path3851" d="m 744.90643,354.60529 c 0,0 -6.54605,19.31148 -6.54605,19.31148 0,0 -0.21872,10.06146 -0.21872,10.06146 0,0 38.88916,-19.72998 38.88916,-19.72998 0,0 1.17287,-27.48523 1.17287,-27.48523 -8.70816,5.41991 -22.77147,13.08572 -33.29726,17.84227 z" style="fill:#ec4b88;fill-opacity:1;stroke:none"/>
    <path id="path3849" d="m 536.738,335.35663 -6.95675,4.08335 21.37806,15.95534 c 0,0 25.0502,-0.19801 25.0502,-0.19801 0,0 -0.86448,-15.14839 -0.86448,-15.14839 -12.2493,0.83858 -38.60703,-4.69229 -38.60703,-4.69229 z" style="fill:#ec4b88;fill-opacity:1;stroke:none"/>
    <path id="path3847" d="m 510.46119,429.13931 c -26.31026,8.55543 -53.88963,15.1067 -80.86744,21.14194 -44.8129,10.85496 -89.79703,14.10432 -105,7.59375 -8.19156,-3.50797 -14.8125,-16.52641 -14.8125,-21.79379 L 264.34375,447.5 261.375,454.0625 c -3.83274,8.48016 -3.78037,9.96729 0.59375,17.75 4.52767,8.05588 15.92073,13.77176 31.125,15.59375 22.40501,2.68488 79.38721,-2.87172 106.375,-10.375 l 121.50667,-40.39806 c 0,0 -10.51423,-7.49388 -10.51423,-7.49388 z" style="fill:#ec4b88;fill-opacity:1;stroke:none"/>
    <path id="path3778" d="m 249.78125,429.64205 c 0,0 -50.50373,12.18568 -50.50373,12.18568 -12.51949,12.9488 -23.6383,26.68818 -30.96502,43.10977 -13.61073,30.50612 3.75988,50.32047 48.6875,55.65625 26.90215,3.195 63.7428,0.25815 116.1875,-9.25 36.146,-6.55321 117.24524,-27.22915 136,-36.25 24.90095,-11.9771 54.43268,-23.67563 77.3125,-33 3.43569,-1.40017 -4.48849,-10.61673 -6.95354,-10.10356 -6.3079,1.31316 -8.7368,1.25489 -54.85896,13.72856 -53.17727,14.38172 -106.7953,28.31059 -161.78125,33.8125 -79.14358,7.91913 -101.88108,-20.05383 -69.42037,-62.04137 l -3.70463,-7.84783 z" style="fill:#ec4b88;fill-opacity:1;stroke:none"/>
  </g>
  <path style="fill:url(#linearGradient4075);fill-opacity:1;stroke:none" d="m 184.26749,62.988542 c -12.52834,4.07355 -20.04749,16.26548 -27.30565,26.55478 -5.80245,7.69421 -11.82967,15.462808 -13.77945,25.063598 -4.29069,17.24079 -4.60173,35.121 -7.1024,52.63162 0.47831,8.65397 -1.54703,5.74535 -3.96872,-0.21174 -4.75749,-8.68592 -6.95256,-19.84202 -0.84378,-28.50701 4.05876,-7.75273 5.33334,-17.16975 1.25,-25.1875 -3.69565,-13.02884 -12.03817,-27.818638 -26.875,-29.374998 -7.39277,-0.66531 -13.03806,4.82581 -18.46875,8.71875 -9.55167,2.21098 -21.33965,-5.23729 -29.40625,2.90625 C 47.41542,106.22092 39.04618,119.75226 38.93677,135.076 c -2.79767,22.65639 -8.08854,45.08234 -7.41928,68.06879 -3.813613,33.3839 -18.895591,64.93589 -20.5625,98.625 3.746817,12.22906 10.112395,24.15169 18.84375,33.375 9.51589,4.63086 19.95512,-0.26278 29.5,-2.03125 10.85065,-3.71442 17.65914,-13.98223 20.375,-24.625 7.06457,-15.8883 8.6974,-33.55741 10.78125,-50.5625 12.31899,24.68993 27.51118,47.84644 41.28125,71.78125 13.77692,-10.42161 31.57182,-14.8197 47.25,-19.78125 4.58838,13.04983 18.33546,20.32936 31.03125,23.375 12.64193,1.79293 23.2863,-7.26499 29.1995,-17.62082 10.2778,-15.24603 14.01361,-33.87464 17.738,-51.41043 7.44002,-2.29066 14.31287,-6.11755 21.78125,-8.53125 -0.70637,22.87151 -1.16906,47.39809 10.5,67.75 0.92109,6.10638 6.90769,13.97457 13.65625,10.0625 13.1189,-12.58387 27.88391,-23.74906 37.21875,-39.5625 3.19888,15.37579 17.37274,25.9218 32.0625,29.15625 14.38828,4.2124 31.61342,-2.91338 36.90625,-17.34375 2.17129,-4.21458 3.39738,-8.7475 4.78125,-13.28125 24.40224,16.1876 49.64896,31.30663 77.43043,40.72292 24.3525,10.35783 47.89462,22.75493 72.63207,32.02708 12.71795,0.91537 28.78883,4.0565 38.5,-6.40625 6.29714,-7.23026 -0.0239,-19.52139 7.96875,-25.5625 3.89277,-2.7122 -1.96507,-6.59699 -4.875,-7.46875 -4.7136,-1.88651 -9.71929,-4.98106 -13.875,-6.96875 2.34459,-2.05299 4.18115,-5.77937 6.3125,-7.28125 8.33185,10.49008 21.63921,18.50657 35.4375,18.3125 16.0143,-0.62827 28.25918,-13.22655 37.3125,-25.09375 4.76963,-5.67681 7.1966,-13.5659 4,-20.59375 -3.69465,-7.30236 -4.46917,-15.15704 -4.09375,-23.21875 -0.96688,-9.72554 1.30663,-19.05052 5.32777,-27.78851 5.80984,-17.9765 9.35884,-36.64397 15.04653,-54.67992 1.08566,-3.79837 1.90313,-8.2928 3.0007,-11.71907 8.16168,5.39577 18.46596,5.65302 27.90625,4.5625 0.1365,44.51676 -7.56192,88.84902 -5.625,133.34375 2.98951,18.13109 21.68133,33.87032 40.5,28.9375 17.92494,-6.18198 26.89466,-25.41345 30.6875,-42.65625 3.71905,-17.07032 4.16268,-35.30001 6.3125,-52.125 1.46162,2.95023 7.16689,3.13999 5.37401,7.31198 -1.02864,20.98349 0.21106,44.78008 15.34866,60.77102 7.93718,11.32469 19.92523,22.01802 34.74505,21.11866 15.50568,0.28401 31.51104,-0.48711 46.21978,-5.57666 15.47157,-6.4384 25.42757,-20.71107 38.68676,-30.41752 12.48,-10.35458 23.1466,-22.61066 31.6658,-36.38605 12.5632,-15.39408 23.7876,-35.35871 19.4983,-56.07219 -3.0421,-22.18336 -1.6154,-46.29718 -14.0696,-65.87424 -5.0798,-8.79133 -13.1302,-14.8745 -19.2813,-22.78125 -8.6745,-9.87797 -22.26941,-12.511118 -34.81246,-13.593748 -8.32519,-0.78186 -16.19596,1.89122 -23.71875,4.781248 -9.2292,0.84525 -18.00657,-4.325998 -27.375,-2.499998 -14.26179,0.864158 -28.61905,9.080948 -34.1875,22.562498 -2.49113,-8.85452 -3.94249,-18.3007 -8.125,-26.437498 -6.47146,-8.92282 -18.80429,-8.43778 -28.75,-9.75 -24.96411,-1.30058 -49.9176,5.57703 -74.78125,2 -10.40063,-0.43645 -20.36757,5.88644 -25.0625,14.656248 -2.7831,-11.926498 -11.97357,-25.186518 -25.5625,-24.437498 -12.22179,1.31935 -21.29612,10.77318 -31.625,16.375 -15.10135,12.094418 -16.76141,32.921038 -19.17579,50.671928 -4.70009,24.17298 -16.23755,46.45988 -22.41796,70.35932 -1.5184,4.50888 -3.19926,8.93642 -5.46875,13.09375 -4.2843,-27.59934 2.15499,-55.2054 5.40625,-82.53125 1.51227,-10.1918 -5.12207,-18.54982 -11.28125,-25.78125 -4.90415,-5.3043 -7.19161,-12.15025 -10.40625,-18.3125 -10.72993,-14.786398 -38.11545,-14.062398 -45.48298,3.67341 -2.61074,5.06392 -5.46518,10.02125 -7.92327,15.17034 -6.53857,-12.66309 -15.36575,-25.120838 -27.5625,-32.687498 -5.81484,-2.80453 -13.04224,-2.44984 -17.0625,-8.28125 -5.68159,-5.5338 -13.45978,-9.01612 -21.5,-7.875 -20.84535,-2.15579 -42.60954,-12.7855 -63.4375,-4.4375 -30.55366,11.57394 -47.70496,46.225078 -43.59375,77.937498 0,0 0.84866,-4.6232 -5.71875,-31.375 -2.36717,-4.85417 -8.90745,-6.09157 -10.96875,-11 3.72065,-14.720198 -7.44468,-29.869668 -21.46875,-33.656248 -11.67968,-6.60526 -26.16133,0.26985 -33.625,10.125 -12.25662,12.01446 -29.44997,18.31538 -40.9375,31.187498 -8.09913,11.52635 -1.74354,26.25196 -6.51173,38.74639 -3.77656,14.22371 -11.12986,27.13251 -18.80077,39.56611 2.67365,-25.83946 4.52163,-51.96065 6.21875,-77.9375 -2.53631,-15.943848 -10.30096,-30.989138 -20.53125,-43.312498 -3.04739,-2.93833 -7.07076,-5.32552 -11.4375,-4.96875 z m 329,126.999998 c 0.65976,27.50497 1.7143,55.1334 5.96875,82.3125 -22.8041,-16.49147 -46.45704,-32.1504 -68.21875,-49.84375 22.00488,-10.22678 44.22996,-22.23841 60.625,-40.5 2.87005,-4.48522 0.86641,6.69594 1.625,8.03125 z" id="path4014" clip-path="url(#clipPath8738)"/>
  <path style="fill:#000000;fill-opacity:1;stroke:none" d="m 173.3125,42.295782 c -12.52834,4.07355 -20.04749,16.26548 -27.30565,26.55478 -5.80245,7.69421 -11.82967,15.46281 -13.77945,25.0636 -4.29069,17.240788 -4.60173,35.120998 -7.1024,52.631618 0.47831,8.65397 -1.54703,5.74535 -3.96872,-0.21174 -4.75749,-8.68592 -6.95256,-19.84202 -0.84378,-28.50701 4.05876,-7.75273 5.33334,-17.16975 1.25,-25.187498 -3.69565,-13.02884 -12.03817,-27.81864 -26.875,-29.375 -7.39277,-0.66531 -13.03806,4.82581 -18.46875,8.71875 -9.55167,2.21098 -21.33965,-5.23729 -29.40625,2.90625 -10.35207,10.63863 -18.721306,24.16997 -18.830718,39.493708 -2.79767,22.65639 -8.088545,45.08234 -7.419282,68.06879 -3.813613,33.3839 -18.895591,64.93589 -20.5625,98.625 3.746817,12.22906 10.112395,24.15169 18.84375,33.375 9.515888,4.63086 19.95512,-0.26278 29.5,-2.03125 10.85065,-3.71442 17.65914,-13.98223 20.375,-24.625 7.06457,-15.8883 8.6974,-33.55741 10.78125,-50.5625 12.31899,24.68993 27.51118,47.84644 41.28125,71.78125 13.77692,-10.42161 31.57182,-14.8197 47.25,-19.78125 4.58838,13.04983 18.33546,20.32936 31.03125,23.375 12.64193,1.79293 23.2863,-7.26499 29.1995,-17.62082 10.2778,-15.24603 14.01361,-33.87464 17.738,-51.41043 7.44002,-2.29066 14.31287,-6.11755 21.78125,-8.53125 -0.70637,22.87151 -1.16906,47.39809 10.5,67.75 0.92109,6.10638 6.90769,13.97457 13.65625,10.0625 13.1189,-12.58387 27.88391,-23.74906 37.21875,-39.5625 3.19888,15.37579 17.37274,25.9218 32.0625,29.15625 14.38828,4.2124 31.61342,-2.91338 36.90625,-17.34375 2.17129,-4.21458 3.39738,-8.7475 4.78125,-13.28125 24.40224,16.1876 49.64896,31.30663 77.43043,40.72292 24.3525,10.35783 47.89462,22.75493 72.63207,32.02708 12.71795,0.91537 28.78883,4.0565 38.5,-6.40625 6.29714,-7.23026 -0.0239,-19.52139 7.96875,-25.5625 3.89277,-2.7122 -1.96507,-6.59699 -4.875,-7.46875 -4.7136,-1.88651 -9.71929,-4.98106 -13.875,-6.96875 2.34459,-2.05299 4.18115,-5.77937 6.3125,-7.28125 8.33185,10.49008 21.63921,18.50657 35.4375,18.3125 16.0143,-0.62827 28.25918,-13.22655 37.3125,-25.09375 4.76963,-5.67681 7.1966,-13.5659 4,-20.59375 -3.69465,-7.30236 -4.46917,-15.15704 -4.09375,-23.21875 -0.96688,-9.72554 1.30663,-19.05052 5.32777,-27.78851 5.80984,-17.9765 9.35884,-36.64397 15.04653,-54.67992 1.08566,-3.79837 1.90313,-8.2928 3.0007,-11.71907 8.16168,5.39577 18.46596,5.65302 27.90625,4.5625 0.1365,44.51676 -7.56192,88.84902 -5.625,133.34375 2.98951,18.13109 21.68133,33.87032 40.5,28.9375 17.92494,-6.18198 26.89466,-25.41345 30.6875,-42.65625 3.71905,-17.07032 4.16268,-35.30001 6.3125,-52.125 1.46162,2.95023 7.16689,3.13999 5.37401,7.31198 -1.02864,20.98349 0.21106,44.78008 15.34866,60.77102 7.93718,11.32469 19.92523,22.01802 34.74505,21.11866 15.50568,0.28401 31.51104,-0.48711 46.21978,-5.57666 15.47157,-6.4384 25.42757,-20.71107 38.68671,-30.41752 12.48004,-10.35458 23.14664,-22.61066 31.66584,-36.38605 12.5632,-15.39408 23.7876,-35.35871 19.4983,-56.07219 -3.0421,-22.18336 -1.6154,-46.29718 -14.0696,-65.87424 -5.0798,-8.79133 -13.1302,-14.874498 -19.2813,-22.781248 -8.6745,-9.87797 -22.2694,-12.51112 -34.81245,-13.59375 -8.32519,-0.78186 -16.19596,1.89122 -23.71875,4.78125 -9.2292,0.84525 -18.00657,-4.326 -27.375,-2.5 -14.26179,0.86416 -28.61905,9.08095 -34.1875,22.562498 -2.49113,-8.854518 -3.94249,-18.300698 -8.125,-26.437498 -6.47146,-8.92282 -18.80429,-8.43778 -28.75,-9.75 -24.96411,-1.30058 -49.9176,5.57703 -74.78125,2 -10.40063,-0.43645 -20.36757,5.88644 -25.0625,14.65625 -2.7831,-11.9265 -11.97357,-25.18652 -25.5625,-24.4375 -12.22179,1.31935 -21.29612,10.77318 -31.625,16.375 -15.10135,12.09442 -16.76141,32.921038 -19.17579,50.671928 -4.70009,24.17298 -16.23755,46.45988 -22.41796,70.35932 -1.5184,4.50888 -3.19926,8.93642 -5.46875,13.09375 -4.2843,-27.59934 2.15499,-55.2054 5.40625,-82.53125 1.51227,-10.1918 -5.12207,-18.54982 -11.28125,-25.781248 -4.90415,-5.3043 -7.19161,-12.15025 -10.40625,-18.3125 -10.72993,-14.7864 -38.11545,-14.0624 -45.48298,3.67341 -2.61074,5.06392 -5.46518,10.02125 -7.92327,15.170338 -6.53857,-12.663088 -15.36575,-25.120838 -27.5625,-32.687498 -5.81484,-2.80453 -13.04224,-2.44984 -17.0625,-8.28125 -5.68159,-5.5338 -13.45978,-9.01612 -21.5,-7.875 -20.84535,-2.15579 -42.60954,-12.7855 -63.4375,-4.4375 -30.55366,11.57394 -47.70496,46.22508 -43.59375,77.937498 0.71062,14.91666 5.00989,30.9185 3.40625,45.125 -1.68313,-11.00856 -1.94057,-23.79011 -3.10022,-35.46212 -1.32265,-13.73588 -2.18211,-27.76581 -6.02478,-41.037878 -2.36717,-4.85417 -8.90745,-6.09157 -10.96875,-11 3.72065,-14.7202 -7.44468,-29.86967 -21.46875,-33.65625 -11.67968,-6.60526 -26.16133,0.26985 -33.625,10.125 -12.25662,12.01446 -29.44997,18.31538 -40.9375,31.1875 -8.09913,11.526348 -1.74354,26.251958 -6.51173,38.746388 -3.77656,14.22371 -11.12986,27.13251 -18.80077,39.56611 2.67365,-25.83946 4.52163,-51.96065 6.21875,-77.937498 -2.53631,-15.94385 -10.30096,-30.98914 -20.53125,-43.3125 -3.04739,-2.93833 -7.07076,-5.32552 -11.4375,-4.96875 z m 226.90625,78.062498 c 0,-20 30,-20 30,0 0,23.95494 -30,20.31943 -30,0 z m 407.03125,19.625 c -2.86595,8.86501 -8.84782,18.0485 -13.84375,24.59375 0.0654,-6.78141 -0.2071,-13.5697 0.21875,-20.34375 4.66744,-0.47181 9.97123,-2.74955 13.625,-4.25 z m -304.9375,29.3125 c 0.65976,27.50497 1.7143,55.1334 5.96875,82.3125 -22.8041,-16.49147 -46.45704,-32.1504 -68.21875,-49.84375 22.00488,-10.22678 44.22996,-22.23841 60.625,-40.5 2.87005,-4.48522 0.86641,6.69594 1.625,8.03125 z m 407.90625,11.0625 c 0,24.94234 -39.10305,60 -50,60 -10,0 -10,-10 -10,-40 0,-30.18749 20,-50 40,-50 18.77108,0 20,5.05766 20,30 z" id="path4292" clip-path="url(#clipPath8748)"/>
  <path style="fill:#ffffff;fill-opacity:1;stroke:none" d="m 173.46875,50.202032 c -11.88647,7.126 -17.75279,20.78795 -26.875,30.78125 -10.51565,14.68286 -8.42215,33.722228 -11.96778,50.586028 -2.79443,20.70416 -2.00389,43.06995 -4.68847,62.91397 -7.53169,-8.23818 -4.35091,-20.38208 -9.2935,-29.87199 -4.32827,-13.07321 -14.94343,-25.53183 -11.8315,-40.00301 1.2455,-8.32727 9.54373,-14.77949 6.75,-23.71875 -2.2814,-6.521848 -3.92452,-13.404878 -7.0625,-19.468748 -3.68242,-4.81646 -8.9928,-9.6943 -15.21875,-10.3125 -7.11658,0.40985 -9.70906,9.33555 -17.0625,8.96875 -7.45533,0.96919 -14.87081,-0.93138 -22.3125,-1.1875 -8.48956,9.79862 -18.35957,20.6799 -17.375,34.593748 -2.63224,21.26044 -8.735566,42.31164 -7.375,63.96875 -2.824137,34.56919 -17.878233,67.09093 -21.375,101.625 1.844452,9.61391 8.883045,17.15852 12.59375,26.0625 3.26983,5.94367 10.55734,2.1096 15.625,1.9375 9.49396,-1.26324 21.47332,-5.76926 22.5625,-16.59375 4.21424,-9.75834 8.63522,-19.43362 9.75,-30.15625 1.86856,-12.83819 3.4867,-25.69656 5.125,-38.53125 -1.53716,-4.28292 4.44956,-2.26773 6.65625,-2.34375 2.17744,2.01719 2.29925,6.83941 4.375,9.5 11.19629,23.88755 25.70712,46.0227 39,68.8125 13.44029,-8.25247 29.01261,-11.76883 43.8125,-16.84375 7.99754,-18.36705 7.91394,-38.95461 13.90625,-57.9375 2.95216,9.6797 6.80219,21.20885 0.0312,30.3125 -4.92347,6.49284 -9.64155,14.5136 -7.09375,22.9375 0.12916,7.46856 1.57683,16.02699 8.84375,19.8125 7.41305,5.99279 18.76375,12.24861 27.9375,6.34375 14.3025,-10.58305 19.1258,-29.04473 24.21875,-45.1875 1.8825,-6.21552 1.82942,-13.33933 3.71875,-19.21875 6.21484,-2.55622 12.5032,-4.78507 18.5807,-7.63643 5.92248,-2.30021 11.90926,-4.77282 18.2943,-5.36357 1.08921,20.33827 -2.79988,41.67355 4.125,61.21875 2.5405,6.58819 5.71008,12.81728 8.375,19.40625 13.83955,-13.26765 29.6664,-25.73297 38.00076,-43.3743 4.23783,-14.75197 7.17943,-30.45385 3.34299,-45.6257 -0.89251,-4.68694 0.48694,-10.19966 3.59375,-13.34375 0.16892,8.34582 6.70553,14.0623 12.125,19.46875 1.97173,3.30684 -0.32193,7.26265 0.75,10.9375 0.47661,5.30792 -1.26544,11.95029 -7,13.375 -4.79072,4.39452 -1.06971,11.39016 -2.78125,16.90625 -0.41262,12.56075 7.93805,25.18679 20.40625,28.125 9.31549,4.52092 22.76046,5.76186 29.625,-3.5 7.19571,-8.01184 8.57166,-19.34014 12.0625,-28.90625 7.32857,3.95063 14.1237,8.97233 21.4375,13.15625 16.30205,11.24338 33.38746,21.01466 52.11386,27.4704 27.51518,11.29398 54.14634,24.83735 81.60489,36.2796 9.64015,0.76035 20.26593,2.42729 29.375,-1 7.58522,-5.87513 1.36397,-16.87044 6.8125,-23.8125 -50.38796,-24.62829 -94.01021,-60.2872 -140.02547,-92.10923 -6.22657,-5.03333 -14.1165,-9.08821 -18.31828,-16.10952 -1.28451,-6.87807 7.38988,-10.37865 12.46875,-12.59375 21.73499,-10.41267 43.34097,-23.20079 57.34375,-43.3125 6.03821,-5.84586 7.91084,-14.29197 7.03125,-22.4375 -0.0731,-13.15882 -5.49915,-25.773198 -14.34375,-35.406248 -5.54864,-8.44237 -13.22458,-17.64131 -24.3125,-17.25 -7.88652,-2.97299 -11.90689,-14.1921 -21.53125,-12.84375 -17.49763,-0.88965 -34.29934,-7.54418 -51.8125,-8.25 -18.62407,2.13038 -35.63763,14.61103 -43.60346,31.61318 -6.36356,12.29526 -9.24497,26.308888 -7.35725,40.163638 0.81263,16.51068 4.4477,32.93902 3.77321,49.47318 -0.28726,6.06539 -4.65795,9.91584 -9.25,12.90625 -1.21612,0.57937 0.0613,-4.89952 -0.8125,-6.90625 -0.45323,-2.4383 -5.22026,-1.34302 -6.0625,-4.65625 -1.62366,-6.17656 -0.61548,-12.89729 -1.86222,-19.26042 -2.06363,-18.63436 -2.57134,-37.7302 -5.98153,-56.052078 -3.33347,-6.02606 -12.33489,-7.91313 -13.21875,-15.34375 4.34012,-10.89639 -3.16383,-23.96758 -14.5625,-25.96875 -5.46115,-4.55553 -13.31887,-4.07013 -18.6875,0.375 -10.01387,8.4874 -19.27889,17.72726 -30.9375,24.09375 -7.45132,5.5254 -18.65835,10.02657 -19.5,20.593748 -0.85926,9.22129 1.74028,18.84458 -2.34375,27.5 -6.88135,25.25121 -21.91357,46.87336 -37.08053,67.85536 -3.63176,7.41095 -2.16659,1.79022 -1.12631,-3.31338 4.8241,-27.49384 5.51168,-55.50347 8.42868,-83.24395 0.0505,-9.90407 3.92896,-20.380518 -1.22184,-29.579278 -4.39437,-11.23886 -8.92928,-23.71324 -18.65625,-31.28125 -0.86106,-0.25522 -1.76378,-0.30929 -2.65625,-0.21875 z m 484.8125,15.15625 c -8.46247,2.31408 -15.14525,8.70544 -22.96875,12.5 -9.66082,6.04573 -15.0446,16.87807 -16.35237,28.011828 -3.3188,18.44192 -5.62453,37.22327 -13.62375,54.33075 -5.61849,13.27549 -8.81402,27.36545 -13.4663,40.92619 -3.99161,8.29295 -7.31653,18.06297 -14.65133,24.13748 -2.04195,-0.16338 -2.40598,-4.45226 -3.5,-6.03125 -2.73831,-10.38361 -2.42353,-21.51304 -3.21875,-32.25 -0.25139,-21.92924 5.11598,-43.40676 7.34375,-65.03125 -2.10818,-12.47873 -15.38746,-19.04757 -18.125,-31.218748 -2.83811,-6.73617 -9.59942,-12.33805 -17.25,-11.21875 -6.43754,-1.25045 -13.96547,1.42077 -16.09375,8.0625 -7.95445,12.10773 -13.84171,25.815038 -16.74567,39.999988 0.24318,40.69521 1.06102,81.57319 6.08942,121.96876 1.78017,12.11508 9.25932,22.62857 19.71875,28.8125 8.64245,5.31978 17.54746,10.56911 25.21875,17.03125 8.00108,3.68953 16.34925,-2.82901 19.65625,-9.84375 2.03615,-3.5404 8.52569,-7.22691 10.9375,-1.9375 7.41905,10.03458 19.1859,17.4791 31.84375,17.9375 13.23358,-1.94523 22.72403,-12.979 30.8415,-22.65742 4.14385,-4.6904 4.29687,-12.07077 0.25225,-16.74883 -4.07931,-10.76111 -1.38507,-22.56523 -2.9375,-33.6875 2.22244,-11.88853 9.31424,-22.33159 10.46875,-34.5 6.04744,-25.32462 16.46962,-49.90276 16.54833,-76.37383 0.11652,-0.74762 0.50851,5.13426 1.19609,7.3196 0.87256,8.05309 6.08667,16.08316 14.56808,17.27298 8.21492,2.09834 16.68138,0.20972 24.8125,-0.65625 1.08605,37.92207 -4.58903,75.61399 -5.3087,113.49437 -0.23029,13.5715 -3.97132,29.64019 5.90245,40.84938 6.6467,8.38489 19.40635,13.62948 29.09375,7.15625 12.06722,-7.77789 17.12674,-22.47063 20.82895,-35.60398 2.66518,-21.07058 4.68287,-42.33433 6.71715,-63.51802 -1.47851,-10.0853 8.3754,-16.53284 8.2664,-26.3155 2.17972,-13.45947 0.34783,-27.77477 1.46875,-40.90625 10.37442,-0.003 23.8362,-3.49928 26.75,-14.90625 2.21947,-9.04154 2.01884,-18.74294 -2,-27.281248 -3.24122,-5.70457 -0.8845,-15.94256 -8.6875,-18.03125 -16.16841,-4.63803 -33.49033,-3.44669 -50.08152,-1.90414 -13.94696,2.4422 -28.07633,2.4057 -42.10598,0.90414 -8.10892,-0.87193 -15.21786,4.13508 -18.79567,11.1505 -4.34425,8.24567 -11.71344,15.552718 -12.48558,25.193248 -0.22066,-10.86331 -0.002,-22.236338 -3.21875,-32.562498 -3.52204,-6.44841 -8.27645,-14.73751 -16.90625,-13.875 z m 244.375,18.96875 c -10.23343,0.11355 -19.87504,8.99909 -30.0625,4.15625 -12.92822,-3.29977 -28.50069,-1.90274 -38.625,7.34375 -5.92427,7.497638 -9.17616,16.730008 -13.25,25.312498 -4.4817,12.30282 -5.12548,26.21627 -13.46162,36.94888 -6.38542,10.30088 -13.56418,20.27722 -19.03838,31.08237 -2.48162,6.67889 -3.47372,14.61409 -0.9375,21.34375 1.40132,3.65438 5.36444,4.9555 8.3125,6.59375 1.50443,14.26814 -0.77481,29.16092 2.71875,43.25 4.19457,14.06421 14.42482,25.66919 25,35.375 7.18242,4.61684 16.7448,3.59422 25.06142,3.60979 15.64247,-1.01847 33.12451,-1.17123 45.28233,-12.48479 13.96585,-14.73682 31.95758,-25.59111 44.4429,-41.6479 6.7293,-11.74829 15.9525,-21.71411 22.9829,-33.13192 5.1321,-11.15958 8.0207,-23.77642 4.6679,-35.93893 -1.9507,-19.09143 -1.6077,-39.42583 -10.8124,-56.84375 -5.5673,-9.68583 -15.2421,-16.19424 -21.3126,-25.562498 -8.55825,-6.97375 -20.41334,-8.25026 -30.9687,-9.40625 z m -493.9375,27.843748 c 7.0359,1.50201 15.98157,3.20013 20.03125,9.71875 -2.2015,6.35313 -10.34503,7.96205 -15.875,10.1875 -5.92821,3.27937 -7.42699,0.57431 -6.58188,-5.34162 -0.14814,-5.00909 -0.28222,-10.02878 0.0506,-15.03338 0.79167,0.15625 1.58333,0.3125 2.375,0.46875 z m 488.625,40.65625 c 5.27713,-0.23299 6.16048,5.80123 6.07063,9.8036 1.00451,12.37665 3.72545,26.61333 -4.07063,37.41515 -8.60183,13.6857 -18.22741,27.67385 -31.8125,36.5625 -3.12409,1.54036 -8.75515,4.73668 -10.15625,-0.59375 -4.45409,-10.76533 -2.52396,-23.09522 -1.53125,-34.375 2.30753,-15.44689 7.72594,-30.56079 16,-43.71875 6.42498,-6.84551 17.25418,-3.24237 25.5,-5.09375 z" id="path4079" clip-path="url(#clipPath8758)"/>
  <path style="fill:url(#linearGradient4341);fill-opacity:1;stroke:none" d="m 22.821653,296.99653 c -1.704502,-2.9196 -4.530191,-8.28499 -6.279309,-11.92311 l -3.180216,-6.61474 3.751832,-18.31501 c 2.063507,-10.07326 3.96836,-18.66535 4.233005,-19.09356 0.264645,-0.42821 1.345906,-3.99906 2.402802,-7.93522 4.733255,-17.62793 6.421283,-24.56803 7.217863,-29.67526 0.46988,-3.01262 1.62985,-8.17872 2.57773,-11.48022 1.09436,-3.81176 1.7234,-11.84014 1.7234,-21.99585 0,-11.67668 0.6809,-19.09089 2.52286,-27.47085 1.38758,-6.31276 2.74899,-13.39486 3.02537,-15.73801 3.25261,-27.576128 2.57582,-25.15505 9.42419,-33.713198 l 6.32894,-7.90904 7.11304,0.80031 c 3.91217,0.44018 10.20907,0.41349 13.99312,-0.0593 5.55177,-0.69365 7.6643,-1.64383 10.94202,-4.92155 l 4.06193,-4.06193 4.96804,2.76333 c 5.66099,3.14877 5.57021,2.9998 9.74319,15.98778 l 3.10478,9.663308 -4.26281,9.10501 c -3.85459,8.23307 -4.22068,9.93042 -3.82282,17.72416 0.38456,7.53299 1.24545,10.20648 6.83145,21.21513 5.95801,11.74179 8.12231,18.87811 10.61221,34.99144 0.60365,3.90655 2.19546,6.39218 7.35971,11.49227 3.6242,3.57919 6.83453,6.26253 7.13407,5.963 1.09065,-1.09064 3.42906,-27.86979 4.40417,-50.43603 0.59746,-13.82633 1.76585,-26.06432 2.90528,-30.43053 1.04824,-4.01683 1.9346,-9.7682 1.96966,-12.78082 0.14467,-12.429898 2.8438,-20.848588 9.56126,-29.821918 11.103,-14.83165 20.20711,-26.15255 21.03874,-26.16155 1.81402,-0.0196 11.0842,16.55546 14.22824,25.44014 l 3.37446,9.53581 -1.57404,16.894168 c -0.86573,9.29179 -2.70425,30.58791 -4.0856,47.3247 -1.38137,16.73679 -3.50896,34.81252 -4.72798,40.1683 -5.62932,24.73238 -7.53917,32.69738 -8.03103,33.49322 -0.29195,0.47239 -1.30787,5.18016 -2.2576,10.4617 -4.33586,24.11214 -7.31327,36.99121 -8.55418,37.00189 -2.53133,0.0218 -27.35721,8.37715 -32.13904,10.81667 l -4.76968,2.43331 -15.69337,-26.26636 c -8.63135,-14.44649 -17.68968,-31.193 -20.12963,-37.21449 -2.43995,-6.02147 -5.1787,-11.41858 -6.08611,-11.99354 -0.90741,-0.57498 -4.72309,-1.05381 -8.4793,-1.06406 l -6.82948,-0.0186 -0.71556,5.7818 c -5.5738,45.0372 -7.57097,55.8108 -11.3785,61.38072 -1.68271,2.46158 -3.36265,6.73595 -3.7332,9.49859 -0.60586,4.51705 -1.24901,5.3145 -6.38516,7.91719 -3.14129,1.5918 -9.00279,3.26658 -13.02555,3.7217 l -7.314102,0.8275 -3.099095,-5.30837 0,0 z" id="path2900"/>
  <path style="fill:url(#linearGradient4343);fill-opacity:1;stroke:none" d="m 201.76274,298.74198 c -8.15206,-1.41635 -15.29498,-6.74631 -20.71246,-12.6848 0.3325,-8.20569 -4.33108,-17.83832 1.98609,-24.6057 3.42333,-6.00961 9.3701,-11.87936 7.47861,-19.81951 1.97576,-8.9594 -4.78984,-18.27173 -3.98609,-25.69841 3.88604,-8.23009 7.36593,-16.52757 12.95153,-23.53282 5.75371,-6.48221 9.57286,-13.54353 14.14323,-20.65784 5.14362,-7.66225 9.08049,-15.99036 12.37315,-24.39998 2.79984,-8.39875 7.03335,-17.23161 7.9767,-26.41014 2.02733,-8.4955 -4.05737,-21.492758 5.56895,-26.187958 5.25629,-3.74887 10.46747,-7.07344 15.60681,-10.54352 9.26924,-5.47962 16.90252,-13.36465 25.27636,-19.98065 4.74225,-5.11917 9.56666,-5.49813 15.14981,-0.50949 10.59638,1.73294 13.10681,9.94432 10.04582,19.29792 -0.38567,9.58824 10.63777,13.10272 14.70345,19.563368 0.62766,12.06677 2.37269,23.9507 3.04673,36.0178 1.1592,10.77961 2.18519,21.36421 3.09229,32.1969 -0.62322,5.87223 2.50508,9.60846 6.69751,11.17343 0.72228,10.5004 -5.92155,18.55381 -10.1951,27.04882 0.45456,10.18985 3.16745,20.15914 2.33184,30.37995 -2.50356,8.0446 -2.74043,16.70433 -5.92231,24.54755 -8.58417,11.38139 -18.33701,22.1131 -29.00634,31.58809 -3.6856,-8.44658 -8.34053,-17.3801 -8.31,-26.8042 -0.37055,-16.62123 -0.33047,-33.24796 -0.47258,-49.87205 -11.85763,-0.9175 -22.60235,4.68802 -33.43829,8.59874 -5.65067,4.54172 -17.64118,2.87949 -16.14295,13.16319 -1.15595,10.02304 -3.40517,19.91303 -7.29859,28.94723 -2.32013,7.60288 -5.83449,15.58755 -11.05879,21.98069 -3.31696,3.07509 -6.49705,9.08899 -11.88538,7.20339 z m 73.39187,-125.93619 c 4.76746,0.22041 0.86798,-6.64875 1.77953,-9.55683 0.31411,-4.91729 -0.48526,-13.94375 -5.64837,-5.84949 -0.7299,5.37547 -12.49814,17.94314 -1.55209,16.03153 1.81223,-0.15886 3.62017,-0.36688 5.42093,-0.62521 z" id="path3690"/>
  <path style="fill:url(#linearGradient4345);fill-opacity:1;stroke:none" d="m 552.77889,330.32098 c -11.90114,-5.80782 -24.28176,-11.33002 -36.36746,-16.94341 -14.04495,-6.10542 -28.23425,-12.93115 -42.57737,-18.75155 -13.36566,-5.72952 -27.40363,-10.00506 -38.66916,-19.39215 -11.58633,-6.63485 -22.63756,-14.41626 -34.17975,-21.11446 -11.12286,-4.66646 -8.6378,9.81457 -12.19671,15.97869 -3.19008,11.30784 -9.59973,23.42457 -23.35975,18.52568 -7.98946,-2.89561 -16.63733,-4.30636 -20.64246,-13.17308 -3.85128,-6.96109 -1.46356,-15.82495 -2.23417,-23.65737 10.51452,-3.69894 9.65487,-14.15626 9.03751,-23.61444 3.38218,-10.43804 -8.21228,-12.17856 -10.61563,-20.07579 -4.49327,-5.33137 -0.67164,-14.41409 3.35583,-18.9423 12.93283,-5.49802 11.54429,-21.73905 9.8633,-33.52225 -1.11735,-14.48151 -2.57729,-28.79404 -3.68686,-43.32776 -0.26782,-10.26352 4.39762,-19.744558 8.64839,-28.626978 5.2124,-10.42764 13.58861,-18.52197 24.595,-22.20345 11.264,-7.78911 25.50135,-2.50357 37.4492,0.34605 10.34943,1.89344 20.86286,3.36213 31.46221,4.35781 5.82638,5.28283 10.6223,12.89479 19.3324,12.74904 10.41746,0.72178 13.79045,12.35253 20.0569,18.62344 7.88336,8.698448 10.89807,20.823538 9.75437,32.427148 0.88039,5.59521 -1.01069,9.90154 -5.32227,13.51977 -6.85854,8.04441 -12.61911,17.22946 -22.24359,22.51555 -10.24661,8.88283 -23.02094,13.74751 -34.66289,20.57321 -10.15259,2.70703 -20.83704,15.23577 -10.45973,24.1356 7.61866,7.83354 17.03449,13.94972 26.08213,20.15588 17.67188,13.00715 35.53542,25.28311 53.38738,37.89853 15.01203,11.06882 29.81965,21.81935 46.32332,30.66142 9.16326,4.96433 17.60726,10.87129 26.93025,15.13998 -1.96633,5.0881 1.38899,15.53115 -3.73951,16.84839 -8.41922,-0.34042 -17.09793,0.75119 -25.32088,-1.1112 z M 404.27791,140.60691 c 10.58089,-2.87711 22.46406,-4.99941 29.36324,-14.28086 7.21904,-11.7608 -15.33489,-18.63822 -24.41731,-20.26719 -6.79133,-2.21016 -10.62984,2.59306 -8.9019,8.87727 0.0865,8.86946 -0.26349,17.76903 0.45646,26.61249 l 1.21627,-0.27949 2.28324,-0.66222 0,0 z" id="path3700"/>
  <path style="fill:url(#linearGradient4347);fill-opacity:1;stroke:none" d="m 619.72605,295.74523 c -8.79113,-3.31531 -18.41081,-7.10904 -23.42295,-15.59162 -3.13846,-7.43468 -16.19597,-6.13726 -19.31887,0.40406 -4.96745,6.66484 -10.63472,15.3192 -17.66278,5.63119 -7.38583,-5.30018 -15.63698,-9.14119 -23.14549,-14.40965 -6.75541,-5.82142 -13.45638,-12.31911 -13.82101,-21.64245 -2.98726,-10.39053 -2.85011,-21.44602 -3.96195,-32.2466 -1.19492,-30.74161 -3.31348,-61.49568 -2.75726,-92.27286 2.5542,-7.18134 5.50116,-14.54877 8.30322,-21.79595 2.55919,-6.073328 7.28175,-11.554338 10.16095,-17.268958 2.37213,-2.34362 8.2618,-0.23548 11.85858,-0.95157 7.95489,0.75708 8.60657,12.37889 13.52267,17.867858 3.79202,8.08216 14.95922,13.79327 12.06886,23.74334 -2.16612,12.85202 -4.91911,25.68977 -5.60246,38.6876 -2.42306,15.23325 -1.69021,30.96203 0.51433,46.15179 -0.64938,6.95215 4.26987,18.2312 9.74851,20.18677 6.63319,-2.40544 11.93024,-7.86494 13.99653,-14.90603 6.85755,-10.04265 10.47605,-21.64931 13.14974,-33.39625 1.53383,-7.05789 4.86478,-13.17792 7.13761,-20.10091 3.50378,-9.5212 6.88578,-19.1599 9.57619,-28.80429 1.67226,-8.59241 2.59235,-16.95497 4.07804,-25.64178 2.55175,-8.97341 3.61415,-20.258198 12.93537,-24.879448 5.02051,-5.14433 12.01691,-6.96849 17.65442,-11.34777 8.09784,-6.29826 12.46011,4.57815 15.92477,10.23019 2.64173,20.787478 2.33547,42.173268 -1.75842,62.777568 -1.77823,8.21435 -4.79126,15.94343 -7.17926,23.90075 -2.2409,8.52437 -4.37132,17.47025 -6.59411,26.22149 -1.88502,8.45741 -4.9419,16.62442 -8.18919,24.38287 -3.77804,7.47467 -0.46919,16.64935 -1.01174,24.81751 0.0937,8.23958 0.0406,17.08424 5.38011,23.69124 0.2465,7.19759 -9.55868,12.60452 -13.41197,18.87798 -5.60171,2.89845 -11.58144,8.50408 -18.17244,7.68393 z" id="path3710"/>
  <path style="fill:url(#linearGradient4349);fill-opacity:1;stroke:none" d="m 733.53623,299.30952 c -6.77866,-3.81403 -13.60569,-10.19039 -14.62014,-18.10561 -0.15882,-14.38573 0.38987,-28.78581 1.53898,-43.0825 0.1597,-13.34297 1.86803,-26.61342 1.97339,-39.95877 1.99228,-11.28845 1.33107,-22.91342 2.53743,-34.31941 0.1782,-9.3954 0.64812,-18.88719 -0.50797,-28.22185 -9.43105,-1.38782 -18.90287,3.74948 -28.23188,0.41721 -10.11668,0.3931 -10.92515,-11.62949 -11.52143,-19.12908 -2.51582,-8.41317 4.25754,-14.73407 7.7504,-21.462748 4.2696,-5.53963 7.22866,-15.59369 15.93336,-13.74503 10.35789,-0.0544 20.7743,1.14932 31.09784,0.7456 12.60067,-2.5457 25.42578,-3.39523 38.26993,-2.96771 7.96701,-0.4402 15.86747,0.57968 23.41269,3.14198 1.48578,5.92052 2.71912,11.64601 4.57742,17.413868 4.29118,6.84056 1.5874,14.69025 0.47077,21.8475 -2.76618,7.50026 -13.77071,7.60713 -20.65163,9.24286 -6.31862,-0.85458 -6.65304,3.19119 -6.07906,7.90506 -0.16592,10.77769 0.46623,21.62474 -0.60861,32.34626 -0.28662,7.10551 -1.30935,13.79904 -6.37329,19.23246 -3.75527,7.06664 -1.52062,16.01502 -3.35759,23.78636 -1.43964,12.88948 -3.2537,25.7643 -3.83868,38.72642 -2.15454,6.37334 -0.16876,14.35874 -4.26363,20.04488 -2.13854,7.9724 -5.66009,15.06835 -11.22797,21.1378 -3.16975,4.57564 -11.02433,6.92233 -16.28033,5.00445 z" id="path3720"/>
  <path style="fill:url(#linearGradient4351);fill-opacity:1;stroke:none" d="m 833.38456,292.9385 c -3.34527,-0.11775 -6.53039,-0.56301 -8.4191,-3.65935 -6.58854,-6.68927 -12.96066,-13.67232 -17.11797,-22.07718 -4.86096,-6.8033 -5.63692,-15.14752 -5.28302,-23.54964 -0.54767,-10.02742 0.11933,-20.24138 -1.7044,-30.13388 -2.7197,-3.2647 -10.34697,-3.29951 -8.59292,-9.0049 -0.1597,-6.20559 -0.51553,-12.56219 4.09342,-17.37159 6.61003,-11.16605 13.34299,-22.02485 20.22298,-33.0559 5.40334,-7.73937 5.28901,-17.37245 8.16238,-26.222 2.83359,-9.72459 8.66475,-18.1374 12.5525,-27.26431 5.63705,-5.473158 14.43364,-7.654428 22.23717,-7.427248 9.83527,-2.20464 18.43749,6.833738 27.86975,1.11992 7.91802,-1.99235 16.12093,-6.38425 24.14947,-2.47656 8.31126,1.44289 17.37726,2.63547 21.58343,10.911748 5.3793,7.94425 14.3247,13.29208 18.1739,22.16388 2.5986,9.12431 6.0244,18.13542 6.4971,27.6187 0.8454,9.5626 1.1028,19.32479 2.4694,28.89842 3.4756,8.56452 -1.3238,17.00814 -3.2018,25.17253 -2.5928,8.16585 -10.1359,13.77666 -14.4419,20.78815 -4.1759,6.33157 -8.1416,12.58834 -12.2852,18.84981 -15.08022,13.21265 -30.24216,26.39005 -45.27441,39.69378 -7.14572,4.77162 -16.73112,5.69281 -25.30232,6.72348 -8.78965,0.21493 -17.61322,1.34213 -26.38846,0.30214 z m 27.04697,-47.9195 c 8.66683,-1.0762 16.36531,-5.91117 21.91513,-12.83867 8.30908,-9.06679 16.61373,-18.37669 22.09968,-29.45121 4.98979,-5.46482 6.73563,-12.75695 5.88166,-20.29494 0.23123,-10.04709 0.12664,-20.14759 -2.84866,-29.83913 -2.95636,-7.04047 -13.1883,-5.87414 -19.57948,-4.96472 -8.55818,-0.32486 -19.87519,1.0143 -22.95563,10.53881 -4.5859,9.21187 -10.0024,18.02411 -12.04094,28.2989 -2.96789,9.43606 -2.9877,19.46035 -4.63341,29.08913 1.33848,7.77108 -0.0532,16.53521 3.75401,23.58208 3.03589,1.86763 3.61511,8.84267 8.40764,5.87975 z" id="path3730"/>
  <path style="fill:#ff0000;fill-opacity:1;stroke:none" d="m 860,332.19293 c 0,0 -15,0 -15,0 -14.77977,17.45491 -41.61383,58.63941 -41.61383,58.63941 0,0 16.61383,0.36059 16.61383,0.36059 0,0 21,-31 21,-31 0,0 18,13 18,13 0,0 14,-12 14,-12 -5,-6 -14,-12 -25,-14 0,0 12,-15 12,-15 z m -152,2 c 0,0 -9,13 -9,13 0,0 -30,0 -30,0 0,0 -7,10 -7,10 3.48978,0 17.37775,0 24,0 4,0 4.40613,3.45919 3,5 -7.54368,8.26623 -18,20 -38,20 0,0 5,9 5,9 17,0 31.89092,-12.7017 39.1694,-19.46704 C 702.44788,364.96055 707,358.19293 707,358.19293 c 0,0 27,0 27,0 0,0 8,-11 8,-11 0,0 -25,0 -25,0 0,0 9,-13 9,-13 l -18,0 z m 72,1 c -8.41076,18.4525 -36,51 -36,51 0,0 8,5 8,5 17,-3 47,-20 59,-30 0,0 -6,-9 -6,-9 0,0 -24.43166,19 -33,19.00003 0,0 23,-36 23,-36 0,0 -15,0 -15,0 l 0,-3e-5 z m -5,1 c 0,0 -15,0 -15,0 -2,8 -30,45 -47,49 0,0 8,6 8,6 16.42619,-7.0943 46.59375,-38.22785 54,-55 z m -156,16 c 0,0 -7,12 -7,12 0,0 34,0 34,0 0,0 8,-12 8,-12 0,0 -35,0 -35,0 z m 272,0 c 0,0 -7,12 -7,12 0,0 36,0 36,0 0,0 7,-12 7,-12 l -36,0 z" id="path3810" clip-path="url(#clipPath8768)"/>
</svg>
